<?xml version="1.0" encoding="UTF-8" standalone="no"?>
<!-- Generator: Adobe Illustrator 19.0.0, SVG Export Plug-In . SVG Version: 6.00 Build 0)  -->

<svg
   xmlns:dc="http://purl.org/dc/elements/1.1/"
   xmlns:cc="http://creativecommons.org/ns#"
   xmlns:rdf="http://www.w3.org/1999/02/22-rdf-syntax-ns#"
   xmlns:svg="http://www.w3.org/2000/svg"
   xmlns="http://www.w3.org/2000/svg"
   xmlns:sodipodi="http://sodipodi.sourceforge.net/DTD/sodipodi-0.dtd"
   xmlns:inkscape="http://www.inkscape.org/namespaces/inkscape"
   version="1.1"
   x="0px"
   y="0px"
   viewBox="0 0 943.92997 861.7771"
   xml:space="preserve"
   id="svg51"
   sodipodi:docname="cpu_logo_text_icon.svg"
   inkscape:version="0.92.3 (2405546, 2018-03-11)"
   width="943.92999"
   height="861.7771"><metadata
   id="metadata57"><rdf:RDF><cc:Work
       rdf:about=""><dc:format>image/svg+xml</dc:format><dc:type
         rdf:resource="http://purl.org/dc/dcmitype/StillImage" /><dc:title></dc:title></cc:Work></rdf:RDF></metadata><defs
   id="defs55">
	
	
	
	
	

		
		
		
		
		
		
		
		
		
		
		
		
		
	
		
		
		
		
		
		
		
		
		
		
		
		
		
	
	
	
	
	
	
	
	
	
	
	
	
	
	
	
</defs><sodipodi:namedview
   pagecolor="#ffffff"
   bordercolor="#666666"
   borderopacity="1"
   objecttolerance="10"
   gridtolerance="10"
   guidetolerance="10"
   inkscape:pageopacity="0"
   inkscape:pageshadow="2"
   inkscape:window-width="1920"
   inkscape:window-height="1015"
   id="namedview53"
   showgrid="false"
   showguides="true"
   inkscape:guide-bbox="true"
   inkscape:measure-start="0,0"
   inkscape:measure-end="0,0"
   inkscape:zoom="0.43703704"
   inkscape:cx="882.50257"
   inkscape:cy="429.49527"
   inkscape:window-x="0"
   inkscape:window-y="33"
   inkscape:window-maximized="1"
   inkscape:current-layer="svg51"
   fit-margin-top="0"
   fit-margin-left="0"
   fit-margin-right="0"
   fit-margin-bottom="0"><sodipodi:guide
     position="41.028453,1371.0754"
     orientation="0,1"
     id="guide4721"
     inkscape:locked="false" /><sodipodi:guide
     position="-313.63256,1318.4483"
     orientation="1,0"
     id="guide4723"
     inkscape:locked="false" /></sodipodi:namedview>
<style
   type="text/css"
   id="style2">
	.st0{fill:none;stroke:#E6007E;stroke-width:20;stroke-linecap:round;stroke-linejoin:round;stroke-miterlimit:10;}
	.st1{fill:none;stroke:#E6007E;stroke-width:20;stroke-linejoin:round;stroke-miterlimit:10;}
	.st2{fill:#FFED00;stroke:#F39200;stroke-width:20;stroke-linecap:round;stroke-linejoin:round;stroke-miterlimit:10;}
	.st3{fill:#F39200;}
	.st4{fill:none;stroke:#E6007E;stroke-width:20;stroke-miterlimit:10;}
	.st5{fill:none;}
	.st6{fill:#E6007E;}
	.st7{font-family:'Dekar';}
	.st8{font-size:180px;}
	.st9{letter-spacing:4,8;}
</style>


<text
   xml:space="preserve"
   style="font-style:normal;font-variant:normal;font-weight:normal;font-stretch:normal;font-size:29.33333397px;line-height:1.25;font-family:Terminus;-inkscape-font-specification:Terminus;letter-spacing:0px;word-spacing:0px;fill:#000000;fill-opacity:1;stroke:none"
   x="59.313484"
   y="-5.0548711"
   id="text4727-1"><tspan
     sodipodi:role="line"
     id="tspan4725-2"
     x="59.313484"
     y="20.898254" /></text>
<g
   id="g5976"
   transform="translate(-58.698981,-67.400086)"><g
     id="XMLID_15_"
     style="font-style:normal;font-variant:normal;font-weight:normal;font-stretch:normal;font-size:164.35295105px;font-family:Knewave;-inkscape-font-specification:Knewave;fill:#e6007e;stroke-width:0.91307205"
     transform="matrix(1.0139189,-0.13988705,0.13353098,0.96784934,-19.255616,-25.457487)"
     aria-label="Don‘t Panic!"><path
       id="path5662"
       style="font-style:normal;font-variant:normal;font-weight:normal;font-stretch:normal;font-size:164.35295105px;font-family:Knewave;-inkscape-font-specification:Knewave;fill:#e6007e;stroke-width:0.91307205"
       d="m 53.559044,902.85931 q -0.657412,7.06718 -2.629647,14.46306 -1.807882,7.39588 -5.423647,14.46306 -3.451412,7.06718 -8.382001,13.6413 -4.766235,6.57411 -10.682942,12.16211 -5.916706,5.588 -12.655177,9.36812 -14.46305966,8.54636 -27.940002,6.08106 -2.958353,6.40977 -8.875059,8.0533 -5.752353,1.80788 -11.504707,0 -5.588,-1.64353 -9.861177,-6.40977 -4.273176,-4.76624 -4.273176,-12.98388 0,-8.382 1.15047,-17.09271 1.150471,-8.71071 3.122706,-16.764 3.122706,-13.31259 7.724589,-24.98165 10.847295,-26.46082 12.326471,-37.14377 2.136589,-14.2987 7.888942,-17.75011 9.5324712,-5.58801 18.0788247,-4.76624 8.5463533,0.82176 15.4491773,4.10882 11.340354,5.42365 24.48859,18.24318 14.463059,13.97 11.997765,37.30812 z m -64.59071,49.30589 q 8.3820009,-4.27318 13.4769424,-8.71071 5.2592944,-4.60188 9.8611766,-8.382 7.067177,-7.06718 10.354236,-16.764 7.23153,-21.36589 -9.203765,-32.37753 -2.465294,-1.80789 -7.3958827,-4.93059 -2.3009413,5.25929 -3.4514119,11.01165 -0.9861177,5.75235 -2.7940002,11.176 l -4.4375297,14.46306 -3.6157649,15.61353 q -0.3287059,3.28706 -0.9861177,6.40976 -0.6574118,2.95835 -1.1504709,6.24541 z"
       inkscape:connector-curvature="0" /><path
       id="path5664"
       style="font-style:normal;font-variant:normal;font-weight:normal;font-stretch:normal;font-size:164.35295105px;font-family:Knewave;-inkscape-font-specification:Knewave;fill:#e6007e;stroke-width:0.91307205"
       d="m 71.925486,899.4079 q 3.451412,-2.4653 8.546353,-1.15047 0.986118,0.16435 1.972236,0.16435 3.615765,-7.39588 12.490824,-7.72459 2.300941,-0.16435 6.409761,-0.82176 4.10883,-0.65741 9.86118,0.3287 5.91671,0.98612 10.35424,3.45142 9.69682,5.25929 11.66906,15.12047 3.94447,14.46306 -1.15047,31.55576 -5.42365,18.90059 -18.40753,30.24095 -5.91671,5.25929 -12.49083,6.57411 -6.574117,1.47918 -11.833411,1.64353 -5.259295,0.16436 -9.696824,0 -4.273177,0 -8.382001,-0.82176 -8.875059,-1.80788 -14.627412,-8.382 -6.738471,-7.39588 -5.752354,-23.00941 0.657412,-13.80565 6.902824,-27.77565 6.409765,-14.13436 14.134354,-19.39365 z m 28.926124,33.03494 q -4.108828,1.31483 -7.724593,1.15047 -1.807883,1.80789 -3.287059,3.94447 -1.314824,1.97224 -3.615765,3.78012 -2.300942,1.64353 -2.300942,1.31482 -2.794,3.94448 -4.601882,8.21765 -1.807883,4.10883 0,8.382 6.574118,0.65741 9.696824,-0.3287 3.122706,-0.98612 5.752353,-3.78012 2.794,-2.794 4.273177,-6.57412 2.958357,-7.06718 1.807887,-16.10659 z"
       inkscape:connector-curvature="0" /><path
       id="path5666"
       style="font-style:normal;font-variant:normal;font-weight:normal;font-stretch:normal;font-size:164.35295105px;font-family:Knewave;-inkscape-font-specification:Knewave;fill:#e6007e;stroke-width:0.91307205"
       d="m 162.39152,898.42178 q 11.01165,-4.43753 14.79176,-0.16435 1.97224,2.30094 1.97224,6.40976 v 0.82177 q 6.08106,-7.06718 21.20153,-11.83341 15.94224,-4.93059 26.29647,-2.794 13.47694,2.794 15.12047,17.58576 1.31483,12.49083 -5.75235,31.72012 -2.30094,4.93059 -3.61576,8.0533 -1.15047,2.95835 -2.13659,5.42364 -2.13659,4.60189 -6.73847,11.01165 -2.62965,4.93059 -8.21765,7.56024 -5.42365,2.62964 -10.8473,2.95835 -5.25929,0.49306 -8.7107,-1.64353 -3.45141,-1.97224 -1.97224,-6.40977 3.78012,-10.18988 6.24541,-18.57188 2.4653,-8.382 5.09495,-14.29871 2.46529,-8.382 0.65741,-10.51858 -1.47918,-1.64353 -5.09494,0.49305 -3.12271,1.97224 -4.43753,4.60189 -2.95836,2.13659 -11.176,17.0927 -2.30094,4.10883 -4.60189,8.21765 -2.13658,3.94447 -4.10882,7.39588 -1.80788,3.45142 -3.28706,5.75236 -1.31482,2.30094 -2.46529,2.95835 -0.98612,0.82177 -1.80789,0.98612 -0.65741,0.3287 -1.15047,0.65741 -0.49306,0.32871 -0.82176,2.13659 -0.65741,3.78012 -7.88894,5.588 -11.66906,2.95835 -21.03718,-0.98612 -3.12271,-1.31482 -4.93059,-3.61576 -3.78012,-7.56024 12.98388,-51.44248 5.91671,-15.44917 7.72459,-18.40753 4.10883,-6.24541 5.2593,-7.06717 1.31482,-0.82177 3.45141,0.3287 z"
       inkscape:connector-curvature="0" /><path
       id="path5668"
       style="font-style:normal;font-variant:normal;font-weight:normal;font-stretch:normal;font-size:164.35295105px;font-family:Knewave;-inkscape-font-specification:Knewave;fill:#e6007e;stroke-width:0.91307205"
       d="m 241.8305,882.9726 0.16435,-2.62964 v -0.65742 l 2.4653,-4.43753 q 0.82176,-1.64352 1.80788,-3.28705 0.32871,-1.97224 4.43753,-7.06718 4.27318,-5.09494 7.39588,-8.87506 l 2.4653,-2.95835 q 1.15047,-1.15047 1.97223,-2.30094 0.98612,-1.15048 2.4653,-2.794 1.47917,-1.64353 4.43753,-2.95836 3.1227,-1.47917 5.75235,-1.15047 2.62965,0.32871 3.94447,2.62965 1.47918,2.13659 0.49306,6.90282 h 0.16435 q -0.16435,0.16436 -0.16435,0.49306 v 0.16435 q -3.61577,15.44918 -3.94447,25.96777 0.82176,-6.73847 0.98612,-4.60188 0.16435,2.13659 0.3287,2.62965 -0.49306,2.30094 -1.47917,4.43752 l 0.16435,0.82177 q -0.65741,1.47918 -1.80788,2.794 -3.45142,6.08106 -8.87506,9.36812 -5.2593,3.1227 -10.35424,2.95835 -5.09494,-0.16435 -8.87506,-3.61576 -3.61576,-3.61577 -3.78012,-11.01165 z"
       inkscape:connector-curvature="0" /><path
       id="path5670"
       style="font-style:normal;font-variant:normal;font-weight:normal;font-stretch:normal;font-size:164.35295105px;font-family:Knewave;-inkscape-font-specification:Knewave;fill:#e6007e;stroke-width:0.91307205"
       d="m 315.93827,846.6506 0.16435,-0.65741 1.47918,-1.47918 q 1.80788,-4.27317 3.94447,-5.09494 1.15047,-0.3287 2.95835,-0.82176 1.80788,-0.49306 4.76624,-2.4653 1.15047,-2.30094 4.76623,-1.97223 3.61577,0.16435 7.06718,2.30094 3.61576,1.97223 5.75235,5.588 2.30094,3.61576 1.15047,7.56023 -1.15047,3.78012 -1.97223,5.75236 -0.65742,1.80788 -1.47918,3.45141 -0.65741,1.64353 -1.80788,3.78012 -0.98612,1.97223 -2.62965,5.42365 l -5.42365,11.34035 q -0.82176,2.13659 -1.47917,2.46529 -0.49306,0.32871 -0.98612,1.15047 1.47918,-0.3287 2.46529,-0.49306 0.98612,-0.16435 1.97224,-0.3287 2.30094,-0.32871 5.25929,-0.65741 1.80789,0.3287 3.12271,0.3287 h 2.30094 q 1.97224,0 4.76624,1.15047 2.794,0.98612 3.61576,3.61577 0.82177,2.62965 0.16435,5.42365 -0.65741,2.62964 -2.62964,4.93058 -1.97224,2.30095 -5.09495,2.4653 -14.2987,3.94447 -20.37976,4.27318 l -0.98612,1.15047 v 0.16435 q -1.64353,3.94447 -3.61576,10.02553 -1.80789,5.91671 -4.10883,12.98388 -2.13659,6.90283 -4.43753,14.46306 -2.30094,7.39588 -4.76623,14.29871 -7.88894,23.17376 -11.50471,25.146 -1.31482,0.65741 -2.794,0.82176 -1.31482,0.32871 -1.47918,0.49306 -5.75235,-0.3287 -9.53247,-2.30094 -3.78011,-1.97223 -5.09494,-3.78012 -1.31482,-1.80788 -0.65741,-4.10882 3.12271,-28.59741 12.49082,-62.61847 -3.28706,0 -4.60188,0.65741 -2.46529,1.31482 -5.9167,1.47917 h -0.16436 q -2.62965,-0.16435 -4.76623,-2.46529 -2.13659,-2.30094 -2.62965,-5.25929 -0.49306,-2.95836 0.98612,-6.08106 1.47917,-3.12271 5.9167,-4.93059 5.2593,-1.47918 7.72459,-2.4653 4.76624,-1.97223 7.88894,-2.794 3.28706,-0.82176 3.61577,-0.98611 0.49306,-0.32871 0.65741,-0.49306 0.49306,-0.32871 2.46529,-0.32871 0.98612,-4.76623 1.97224,-9.69682 0.98612,-4.93059 2.46529,-10.02553 3.28706,-11.83342 9.03942,-20.37977 z"
       inkscape:connector-curvature="0" /><path
       id="path5672"
       style="font-style:normal;font-variant:normal;font-weight:normal;font-stretch:normal;font-size:164.35295105px;font-family:Knewave;-inkscape-font-specification:Knewave;fill:#e6007e;stroke-width:0.91307205"
       d="m 478.65538,934.41508 q -6.57412,4.93059 -13.80565,7.23153 -7.06718,2.13659 -14.13436,1.15047 -7.06717,-0.98612 -12.16211,-6.08106 -4.60189,14.62741 -6.24542,28.92612 -0.65741,2.62965 -2.30094,4.76623 -2.95835,8.71071 -12.98388,11.66906 -9.86118,2.794 -18.40753,-0.98611 -3.94447,-1.80789 -6.57412,-5.2593 -2.62965,-3.45141 -2.62965,-8.382 11.34036,-39.28035 21.85895,-64.42636 2.30094,-5.25929 3.61576,-8.54635 1.47918,-3.28706 2.62965,-5.588 1.15047,-2.30094 1.97223,-3.94447 0.98612,-1.80788 2.30094,-3.94447 2.95836,-4.93059 6.73848,-11.50471 3.94447,-6.73847 6.57411,-10.02553 2.794,-3.28706 5.75236,-5.588 3.1227,-2.46529 6.73847,-4.60188 3.78012,-2.13659 9.36812,-5.588 5.588,-3.45141 11.83341,-4.10883 6.40976,-0.82176 12.16212,0.98612 12.16212,3.78012 17.91447,16.92836 4.93059,12.16211 1.64353,32.70623 -5.09494,31.39142 -21.85894,44.21095 z m -34.34977,-14.62742 q 13.47694,-2.95835 18.73624,-17.58576 4.43753,-12.32647 1.80788,-27.94 -3.78012,6.40976 -6.90283,13.31259 -2.95835,6.90282 -5.42364,12.32647 -5.42365,12.16212 -8.21765,19.8867 z"
       inkscape:connector-curvature="0" /><path
       id="path5674"
       style="font-style:normal;font-variant:normal;font-weight:normal;font-stretch:normal;font-size:164.35295105px;font-family:Knewave;-inkscape-font-specification:Knewave;fill:#e6007e;stroke-width:0.91307205"
       d="m 569.12652,899.07919 0.65741,0.16436 q 0.32871,0 0.32871,0.16435 4.27318,-1.64353 7.06718,2.46529 1.80788,2.794 2.794,8.54636 0.3287,7.88894 -1.64353,21.85894 -3.78012,28.26871 -4.10883,33.69235 0.32871,5.75236 -7.06717,7.88895 -6.40977,1.97223 -12.81953,-0.16436 -6.73847,-2.30094 -5.588,-7.06717 -1.31483,2.46529 -2.62965,3.45141 -1.31482,1.15047 -5.2593,2.95835 -3.78011,1.97224 -10.84729,3.12271 -7.06718,1.31482 -14.13435,0.65741 -7.06718,-0.49306 -12.98389,-3.45141 -5.75235,-2.794 -7.72459,-8.87506 -3.78011,-11.83342 0.98612,-30.07659 3.28706,-11.99777 11.83341,-21.20153 9.86118,-10.51859 22.35201,-17.42142 9.36811,-5.09494 18.07882,-6.08106 2.95835,-0.3287 5.09494,0.16436 2.30094,0.49306 4.76624,0.98612 2.62964,0.49305 4.93059,1.47917 5.9167,2.4653 5.9167,6.73847 z m -30.40529,43.55353 q 1.15047,-2.30094 1.80788,-5.75235 0.82176,-3.45141 2.13659,-7.56023 -13.31259,5.42364 -20.37977,13.31258 -7.72459,8.71071 0.98612,11.99777 7.56023,1.97224 11.01165,-2.46529 1.47917,-1.97224 2.62964,-4.93059 1.15047,-2.95836 2.794,-6.08106 -0.49305,0.82176 -0.98611,1.47917 z"
       inkscape:connector-curvature="0" /><path
       id="path5676"
       style="font-style:normal;font-variant:normal;font-weight:normal;font-stretch:normal;font-size:164.35295105px;font-family:Knewave;-inkscape-font-specification:Knewave;fill:#e6007e;stroke-width:0.91307205"
       d="m 609.25434,898.42178 q 11.01165,-4.43753 14.79177,-0.16435 1.97223,2.30094 1.97223,6.40976 v 0.82177 q 6.08106,-7.06718 21.20153,-11.83341 15.94224,-4.93059 26.29648,-2.794 13.47694,2.794 15.12047,17.58576 1.31482,12.49083 -5.75236,31.72012 -2.30094,4.93059 -3.61576,8.0533 -1.15047,2.95835 -2.13659,5.42364 -2.13659,4.60189 -6.73847,11.01165 -2.62965,4.93059 -8.21765,7.56024 -5.42364,2.62964 -10.84729,2.95835 -5.2593,0.49306 -8.71071,-1.64353 -3.45141,-1.97224 -1.97223,-6.40977 3.78011,-10.18988 6.24541,-18.57188 2.46529,-8.382 5.09494,-14.29871 2.46529,-8.382 0.65741,-10.51858 -1.47917,-1.64353 -5.09494,0.49305 -3.12271,1.97224 -4.43753,4.60189 -2.95835,2.13659 -11.176,17.0927 -2.30094,4.10883 -4.60188,8.21765 -2.13659,3.94447 -4.10883,7.39588 -1.80788,3.45142 -3.28706,5.75236 -1.31482,2.30094 -2.46529,2.95835 -0.98612,0.82177 -1.80788,0.98612 -0.65741,0.3287 -1.15047,0.65741 -0.49306,0.32871 -0.82177,2.13659 -0.65741,3.78012 -7.88894,5.588 -11.66906,2.95835 -21.03718,-0.98612 -3.1227,-1.31482 -4.93059,-3.61576 -3.78011,-7.56024 12.98389,-51.44248 5.9167,-15.44917 7.72459,-18.40753 4.10882,-6.24541 5.25929,-7.06717 1.31482,-0.82177 3.45141,0.3287 z"
       inkscape:connector-curvature="0" /><path
       id="path5678"
       style="font-style:normal;font-variant:normal;font-weight:normal;font-stretch:normal;font-size:164.35295105px;font-family:Knewave;-inkscape-font-specification:Knewave;fill:#e6007e;stroke-width:0.91307205"
       d="m 710.71659,898.42178 q 2.13659,-5.42365 10.18988,-7.39588 7.56024,-1.97224 14.13436,0.49306 6.73847,2.62964 6.08105,8.54635 -1.80788,5.75235 -4.60188,14.13435 -2.62965,8.21765 -5.09494,16.92836 -6.57412,22.352 -7.56024,31.55576 -2.46529,14.79177 -8.21764,15.94224 -1.64353,0.32871 -3.12271,0.49306 -3.61576,0.16435 -4.60188,1.97224 -0.98612,1.80788 -3.28706,2.62964 -2.30094,0.98612 -5.09494,0.82177 -2.62965,0 -5.42365,-1.31483 -2.794,-1.15047 -4.76623,-3.45141 -4.60189,-5.588 -1.80789,-14.95612 2.62965,-17.91447 13.31259,-45.52576 5.09494,-13.6413 9.86118,-20.87283 z m 31.06271,-24.65294 q -8.0533,1.64353 -13.14824,-0.98612 -4.93059,-2.62965 -5.75235,-6.24541 -0.82177,-3.78012 2.30094,-7.72459 3.61576,-4.93059 10.84729,-6.40977 3.28706,-0.3287 4.76624,-0.3287 1.47918,0 3.61576,0.65741 5.42365,0.49306 7.06718,4.76624 2.30094,3.61576 0.32871,8.21764 -1.80789,4.60189 -10.02553,8.0533 z"
       inkscape:connector-curvature="0" /><path
       id="path5680"
       style="font-style:normal;font-variant:normal;font-weight:normal;font-stretch:normal;font-size:164.35295105px;font-family:Knewave;-inkscape-font-specification:Knewave;fill:#e6007e;stroke-width:0.91307205"
       d="m 809.05106,888.88931 q 6.40976,0.82176 8.54635,4.60188 2.30094,3.61577 1.80788,7.88894 -0.49306,4.10883 -3.1227,7.56024 -2.4653,3.28706 -5.588,3.45141 -1.15047,3.45141 -3.61577,4.76624 -2.46529,1.31482 -5.42365,1.80788 -2.95835,0.49306 -6.24541,1.15047 -3.1227,0.49306 -5.9167,2.794 -2.794,2.30094 -4.76624,4.60188 -1.80788,2.13659 -2.95835,4.27318 -1.97224,3.61577 -3.45141,8.87506 -0.32871,3.61576 3.45141,6.73847 4.43753,3.45141 9.69682,3.12271 5.2593,-0.49306 8.382,0.49306 3.28706,0.82176 4.93059,2.46529 3.61577,3.78012 -0.65741,8.71071 -8.21765,13.14823 -27.6113,15.61353 -5.75235,0.82176 -11.5047,0.3287 -5.75236,-0.3287 -11.176,-4.27317 -5.42365,-3.94448 -8.54636,-10.68295 -6.90282,-15.44917 1.15047,-35.99329 7.72459,-19.2293 23.17377,-29.58353 16.92835,-11.50471 39.44471,-8.71071 z"
       inkscape:connector-curvature="0" /><path
       id="path5682"
       style="font-style:normal;font-variant:normal;font-weight:normal;font-stretch:normal;font-size:164.35295105px;font-family:Knewave;-inkscape-font-specification:Knewave;fill:#e6007e;stroke-width:0.91307205"
       d="m 892.265,851.08813 q 0.65741,1.97224 1.47918,2.794 0.82176,0.65741 1.15047,0.98612 0.82176,0.82176 -0.82176,2.95835 -1.47918,2.95836 -4.10883,6.90283 -4.76623,7.06717 -6.08106,10.35423 -6.73847,13.47694 -10.51859,24.8173 -3.78011,11.176 -6.40976,20.21541 -2.62965,9.03941 -5.09494,15.94224 -2.95836,8.05329 -6.90283,11.99776 -1.97223,3.28706 -7.06717,4.43753 -5.09495,1.15047 -10.35424,0.49306 -5.25929,-0.82176 -9.03941,-3.45141 -3.61577,-2.62965 -2.62965,-6.90283 1.80788,-15.44917 5.42365,-25.96776 3.78012,-10.51859 6.40976,-17.42141 2.794,-6.90283 4.76624,-12.32648 1.97223,-5.588 3.61576,-9.53247 1.80789,-4.10882 4.10883,-8.54635 2.30094,-4.60188 4.93059,-9.20377 2.794,-4.76623 5.588,-8.7107 6.40976,-9.03941 10.84729,-10.68294 4.43753,-1.80789 8.87506,-2.13659 4.60188,-0.32871 7.88894,0.98612 3.45141,1.31482 4.76624,4.27317 1.31482,2.95836 -0.82177,7.72459 z m -39.28035,123.92213 q -1.80788,6.73847 -7.56024,10.02553 -5.588,3.45141 -11.99776,3.61576 -6.40977,0.32871 -11.99777,-2.46529 -5.42365,-2.62965 -6.73847,-8.382 -1.47918,-5.588 1.64353,-9.53247 3.28706,-4.10883 7.72459,-5.2593 4.43753,-1.31482 10.35423,-1.80788 6.08106,-0.49306 11.01165,0.65741 4.93059,1.15047 7.56024,4.27318 2.62964,3.1227 0,8.87506 z"
       inkscape:connector-curvature="0" /></g></g><g
   id="g5962"
   transform="translate(-58.698981,-67.400086)"><line
     style="fill:none;stroke:#e6007e;stroke-width:20;stroke-linecap:round;stroke-linejoin:round;stroke-miterlimit:10"
     y2="137.54251"
     x2="642.74438"
     y1="77.542511"
     x1="642.74438"
     class="st0"
     id="XMLID_3_" /><polygon
     transform="translate(-19.255616,-25.457487)"
     style="fill:none;stroke:#e6007e;stroke-width:20;stroke-linejoin:round;stroke-miterlimit:10"
     points="487.1,503 446,583 764,583 764,163 662,163 620.9,243 684,243 684,503 "
     class="st1"
     id="XMLID_31_" /><polygon
     transform="translate(-19.255616,-25.457487)"
     style="fill:none;stroke:#e6007e;stroke-width:20;stroke-linejoin:round;stroke-miterlimit:10"
     points="684,503 684,243 620.9,243 487.1,503 "
     class="st1"
     id="XMLID_33_" /><line
     style="fill:none;stroke:#e6007e;stroke-width:20;stroke-linecap:round;stroke-linejoin:round;stroke-miterlimit:10"
     y2="137.54251"
     x2="696.74438"
     y1="77.542511"
     x1="696.74438"
     class="st0"
     id="XMLID_8_" /><line
     style="fill:none;stroke:#e6007e;stroke-width:20;stroke-linecap:round;stroke-linejoin:round;stroke-miterlimit:10"
     y2="557.54254"
     x2="534.74438"
     y1="617.54254"
     x1="534.74438"
     class="st0"
     id="XMLID_17_" /><line
     style="fill:none;stroke:#e6007e;stroke-width:20;stroke-linecap:round;stroke-linejoin:round;stroke-miterlimit:10"
     y2="557.54254"
     x2="480.74438"
     y1="617.54254"
     x1="480.74438"
     class="st0"
     id="XMLID_16_" /><line
     style="fill:none;stroke:#e6007e;stroke-width:20;stroke-linecap:round;stroke-linejoin:round;stroke-miterlimit:10"
     y2="617.54254"
     x2="588.74438"
     y1="557.54254"
     x1="588.74438"
     class="st0"
     id="XMLID_13_" /><line
     style="fill:none;stroke:#e6007e;stroke-width:20;stroke-linecap:round;stroke-linejoin:round;stroke-miterlimit:10"
     y2="557.54254"
     x2="642.74438"
     y1="617.54254"
     x1="642.74438"
     class="st0"
     id="XMLID_12_" /><line
     style="fill:none;stroke:#e6007e;stroke-width:20;stroke-linecap:round;stroke-linejoin:round;stroke-miterlimit:10"
     y2="557.54254"
     x2="696.74438"
     y1="617.54254"
     x1="696.74438"
     class="st0"
     id="XMLID_5_" /><line
     style="fill:none;stroke:#e6007e;stroke-width:20;stroke-linecap:round;stroke-linejoin:round;stroke-miterlimit:10"
     y2="185.54251"
     x2="804.74438"
     y1="185.54251"
     x1="744.74438"
     class="st0"
     id="XMLID_21_" /><line
     style="fill:none;stroke:#e6007e;stroke-width:20;stroke-linecap:round;stroke-linejoin:round;stroke-miterlimit:10"
     y2="239.54251"
     x2="804.74438"
     y1="239.54251"
     x1="744.74438"
     class="st0"
     id="XMLID_34_" /><line
     style="fill:none;stroke:#e6007e;stroke-width:20;stroke-linecap:round;stroke-linejoin:round;stroke-miterlimit:10"
     y2="455.54251"
     x2="804.74438"
     y1="455.54251"
     x1="744.74438"
     class="st0"
     id="XMLID_19_" /><line
     style="fill:none;stroke:#e6007e;stroke-width:20;stroke-linecap:round;stroke-linejoin:round;stroke-miterlimit:10"
     y2="509.54251"
     x2="804.74438"
     y1="509.54251"
     x1="744.74438"
     class="st0"
     id="XMLID_18_" /><path
     id="XMLID_29_"
     class="st0"
     d="M 310.74438,266.54251"
     inkscape:connector-curvature="0"
     style="fill:none;stroke:#e6007e;stroke-width:20;stroke-linecap:round;stroke-linejoin:round;stroke-miterlimit:10" /><path
     id="XMLID_27_"
     class="st0"
     d="M 310.74438,428.54251"
     inkscape:connector-curvature="0"
     style="fill:none;stroke:#e6007e;stroke-width:20;stroke-linecap:round;stroke-linejoin:round;stroke-miterlimit:10" /><line
     style="fill:none;stroke:#e6007e;stroke-width:20;stroke-linecap:round;stroke-linejoin:round;stroke-miterlimit:10"
     y2="131.54251"
     x2="506.74438"
     y1="191.54251"
     x1="506.74438"
     class="st0"
     id="XMLID_4_" /><line
     style="fill:none;stroke:#e6007e;stroke-width:20;stroke-linecap:round;stroke-linejoin:round;stroke-miterlimit:10"
     y2="131.54251"
     x2="452.74438"
     y1="191.54251"
     x1="452.74438"
     class="st0"
     id="XMLID_9_" /><line
     style="fill:none;stroke:#e6007e;stroke-width:20;stroke-linecap:round;stroke-linejoin:round;stroke-miterlimit:10"
     y2="131.54251"
     x2="398.74438"
     y1="191.54251"
     x1="398.74438"
     class="st0"
     id="XMLID_10_" /><line
     style="fill:none;stroke:#e6007e;stroke-width:20;stroke-linecap:round;stroke-linejoin:round;stroke-miterlimit:10"
     y2="131.54251"
     x2="344.74438"
     y1="191.54251"
     x1="344.74438"
     class="st0"
     id="XMLID_11_" /><line
     style="fill:none;stroke:#e6007e;stroke-width:20;stroke-linecap:round;stroke-linejoin:round;stroke-miterlimit:10"
     y2="191.54251"
     x2="560.74438"
     y1="131.54251"
     x1="560.74438"
     class="st0"
     id="XMLID_24_" /><polygon
     transform="translate(-19.255616,-25.457487)"
     style="fill:none;stroke:#e6007e;stroke-width:20;stroke-linejoin:round;stroke-miterlimit:10"
     points="316,217 316,637 418,637 459.1,557 396,557 396,297 592.9,297 634,217 "
     class="st1"
     id="XMLID_30_" /><polygon
     transform="translate(-19.255616,-25.457487)"
     style="fill:none;stroke:#e6007e;stroke-width:20;stroke-linejoin:round;stroke-miterlimit:10"
     points="396,557 459.1,557 592.9,297 396,297 "
     class="st1"
     id="XMLID_39_" /><line
     style="fill:none;stroke:#e6007e;stroke-width:20;stroke-linecap:round;stroke-linejoin:round;stroke-miterlimit:10"
     y2="611.54254"
     x2="344.74438"
     y1="671.54254"
     x1="344.74438"
     class="st0"
     id="XMLID_14_" /><line
     style="fill:none;stroke:#e6007e;stroke-width:20;stroke-linecap:round;stroke-linejoin:round;stroke-miterlimit:10"
     y2="611.54254"
     x2="398.74438"
     y1="671.54254"
     x1="398.74438"
     class="st0"
     id="XMLID_6_" /><line
     style="fill:none;stroke:#e6007e;stroke-width:20;stroke-linecap:round;stroke-linejoin:round;stroke-miterlimit:10"
     y2="239.54251"
     x2="296.74438"
     y1="239.54251"
     x1="236.74438"
     class="st0"
     id="XMLID_28_" /><line
     style="fill:none;stroke:#e6007e;stroke-width:20;stroke-linecap:round;stroke-linejoin:round;stroke-miterlimit:10"
     y2="293.54251"
     x2="296.74438"
     y1="293.54251"
     x1="236.74438"
     class="st0"
     id="XMLID_22_" /><line
     style="fill:none;stroke:#e6007e;stroke-width:20;stroke-linecap:round;stroke-linejoin:round;stroke-miterlimit:10"
     y2="509.54251"
     x2="296.74438"
     y1="509.54251"
     x1="236.74438"
     class="st0"
     id="XMLID_26_" /><line
     style="fill:none;stroke:#e6007e;stroke-width:20;stroke-linecap:round;stroke-linejoin:round;stroke-miterlimit:10"
     y2="563.54254"
     x2="296.74438"
     y1="563.54254"
     x1="236.74438"
     class="st0"
     id="XMLID_25_" /><line
     style="fill:none;stroke:#e6007e;stroke-width:20;stroke-linecap:round;stroke-linejoin:round;stroke-miterlimit:10"
     y2="455.5415"
     x2="296.74484"
     y1="455.5415"
     x1="236.74481"
     class="st0"
     id="XMLID_26_-3" /><line
     style="fill:none;stroke:#e6007e;stroke-width:20;stroke-linecap:round;stroke-linejoin:round;stroke-miterlimit:10"
     y2="401.5415"
     x2="296.74484"
     y1="401.5415"
     x1="236.74481"
     class="st0"
     id="XMLID_26_-3-6" /><line
     style="fill:none;stroke:#e6007e;stroke-width:20;stroke-linecap:round;stroke-linejoin:round;stroke-miterlimit:10"
     y2="347.5415"
     x2="296.74484"
     y1="347.5415"
     x1="236.74481"
     class="st0"
     id="XMLID_26_-3-6-7" /><g
     transform="translate(477.28719,-24.280508)"
     id="g4702"><line
       id="XMLID_26_-3-5"
       class="st0"
       x1="267.45761"
       y1="425.82202"
       x2="327.45764"
       y2="425.82202"
       style="fill:none;stroke:#e6007e;stroke-width:20;stroke-linecap:round;stroke-linejoin:round;stroke-miterlimit:10" /><line
       id="XMLID_26_-3-6-3"
       class="st0"
       x1="267.45761"
       y1="371.82202"
       x2="327.45764"
       y2="371.82202"
       style="fill:none;stroke:#e6007e;stroke-width:20;stroke-linecap:round;stroke-linejoin:round;stroke-miterlimit:10" /><line
       id="XMLID_26_-3-6-7-5"
       class="st0"
       x1="267.45761"
       y1="317.82202"
       x2="327.45764"
       y2="317.82202"
       style="fill:none;stroke:#e6007e;stroke-width:20;stroke-linecap:round;stroke-linejoin:round;stroke-miterlimit:10" /></g><path
     id="XMLID_36_"
     class="st2"
     d="m 276.74438,454.74251 109.6,-9.3 c 6.6,-0.8 11.3,-6.8 10.4,-13.4 l -10.2,-83.4 c -0.8,-6.6 -6.8,-11.3 -13.4,-10.4 l -96.4,9.3 z"
     inkscape:connector-curvature="0"
     style="fill:#ffed00;stroke:#f39200;stroke-width:20;stroke-linecap:round;stroke-linejoin:round;stroke-miterlimit:10" /><path
     id="XMLID_23_"
     class="st2"
     d="m 668.24438,410.84251 96.5,-9.3 v -107.2 l -109.6,9.3 c -6.6,0.8 -11.3,6.8 -10.4,13.4 l 10.2,83.4 c 0.8,6.5 6.8,11.2 13.3,10.4 z"
     inkscape:connector-curvature="0"
     style="fill:#ffed00;stroke:#f39200;stroke-width:20;stroke-linecap:round;stroke-linejoin:round;stroke-miterlimit:10" /><path
     id="XMLID_20_"
     class="st2"
     d="m 646.84438,433.64251 -234.2,28.8 c -6.6,0.8 -12.6,-3.9 -13.4,-10.4 l -15.1,-123.1 c -0.8,-6.6 3.9,-12.6 10.4,-13.4 l 234.2,-28.8 c 6.6,-0.8 12.6,3.9 13.4,10.4 l 15.1,123.1 c 0.9,6.5 -3.8,12.6 -10.4,13.4 z"
     inkscape:connector-curvature="0"
     style="fill:#ffed00;stroke:#f39200;stroke-width:20;stroke-linecap:round;stroke-linejoin:round;stroke-miterlimit:10" /><circle
     id="XMLID_35_"
     class="st3"
     cx="439.14438"
     cy="350.3425"
     r="10"
     style="fill:#f39200" /><circle
     id="XMLID_32_"
     class="st3"
     cx="447.4444"
     cy="417.8425"
     r="10"
     style="fill:#f39200" /><circle
     id="XMLID_38_"
     class="st3"
     cx="490.84439"
     cy="343.9425"
     r="10"
     style="fill:#f39200" /><circle
     id="XMLID_37_"
     class="st3"
     cx="499.04437"
     cy="411.4425"
     r="10"
     style="fill:#f39200" /><circle
     id="XMLID_42_"
     class="st3"
     cx="542.4444"
     cy="337.64252"
     r="10"
     style="fill:#f39200" /><circle
     id="XMLID_41_"
     class="st3"
     cx="550.64441"
     cy="405.14252"
     r="10"
     style="fill:#f39200" /><circle
     id="XMLID_44_"
     class="st3"
     cx="594.04437"
     cy="331.24252"
     r="10"
     style="fill:#f39200" /><circle
     id="XMLID_43_"
     class="st3"
     cx="602.34436"
     cy="398.74252"
     r="10"
     style="fill:#f39200" /></g></svg>