<?xml version="1.0" encoding="UTF-8" standalone="no"?>
<!-- Created with Inkscape (http://www.inkscape.org/) -->

<svg
   xmlns:dc="http://purl.org/dc/elements/1.1/"
   xmlns:cc="http://creativecommons.org/ns#"
   xmlns:rdf="http://www.w3.org/1999/02/22-rdf-syntax-ns#"
   xmlns:svg="http://www.w3.org/2000/svg"
   xmlns="http://www.w3.org/2000/svg"
   xmlns:sodipodi="http://sodipodi.sourceforge.net/DTD/sodipodi-0.dtd"
   xmlns:inkscape="http://www.inkscape.org/namespaces/inkscape"
   width="65.204849mm"
   height="64.179688mm"
   viewBox="0 0 65.204849 64.179688"
   version="1.1"
   id="svg9427"
   inkscape:version="0.92.3 (2405546, 2018-03-11)"
   sodipodi:docname="logo_cpu_broken_patch_invert.svg">
  <defs
     id="defs9421" />
  <sodipodi:namedview
     id="base"
     pagecolor="#ffffff"
     bordercolor="#666666"
     borderopacity="1.0"
     inkscape:pageopacity="0.0"
     inkscape:pageshadow="2"
     inkscape:zoom="1.4"
     inkscape:cx="-11.864307"
     inkscape:cy="114.39786"
     inkscape:document-units="mm"
     inkscape:current-layer="layer1"
     showgrid="false"
     fit-margin-top="0"
     fit-margin-left="0"
     fit-margin-right="0"
     fit-margin-bottom="0"
     inkscape:window-width="1920"
     inkscape:window-height="1015"
     inkscape:window-x="0"
     inkscape:window-y="33"
     inkscape:window-maximized="1" />
  <metadata
     id="metadata9424">
    <rdf:RDF>
      <cc:Work
         rdf:about="">
        <dc:format>image/svg+xml</dc:format>
        <dc:type
           rdf:resource="http://purl.org/dc/dcmitype/StillImage" />
        <dc:title />
      </cc:Work>
    </rdf:RDF>
  </metadata>
  <g
     inkscape:label="Layer 1"
     inkscape:groupmode="layer"
     id="layer1"
     transform="translate(56.792897,7.2327049)">
    <g
       id="g5585-2-3-6"
       transform="translate(-267.93748,109.51318)">
      <rect
         rx="0.30038017"
         y="-100.56677"
         x="228.88979"
         height="42.56279"
         width="42.56279"
         id="rect2689-0-5-5-2-3-5-3-05-7-7-7"
         style="opacity:1;fill:#4a4a4a;fill-opacity:1;stroke:#e6e6e6;stroke-width:1.75;stroke-linecap:butt;stroke-miterlimit:4;stroke-dasharray:none;stroke-opacity:1" />
      <g
         style="stroke:#e6e6e6;stroke-opacity:1"
         id="g2019-6-7-6-0-2-7-3"
         transform="translate(198.05862,-289.29252)">
        <path
           style="opacity:1;fill:none;stroke:#e6e6e6;stroke-width:1.75;stroke-linecap:butt;stroke-linejoin:miter;stroke-miterlimit:4;stroke-dasharray:none;stroke-opacity:1"
           d="m 64.076256,183.28797 v 5.43778"
           id="path4590-20-0-4-3-4-2-8-2-8-7-0-5-7-4-4-1-9-1-2"
           inkscape:connector-curvature="0" />
        <path
           style="opacity:1;fill:none;stroke:#e6e6e6;stroke-width:1.75;stroke-linecap:butt;stroke-linejoin:miter;stroke-miterlimit:4;stroke-dasharray:none;stroke-opacity:1"
           d="m 60.677646,183.28797 v 5.43778"
           id="path4590-2-55-5-7-5-1-5-0-2-3-3-3-8-5-5-3-7-0-2-2"
           inkscape:connector-curvature="0" />
        <path
           style="opacity:1;fill:none;stroke:#e6e6e6;stroke-width:1.75;stroke-linecap:butt;stroke-linejoin:miter;stroke-miterlimit:4;stroke-dasharray:none;stroke-opacity:1"
           d="m 43.684586,183.28797 v 5.43778"
           id="path4590-2-1-2-2-0-9-7-9-8-4-69-42-6-7-5-3-25-3-9-5-1-1"
           inkscape:connector-curvature="0" />
        <path
           style="opacity:1;fill:none;stroke:#e6e6e6;stroke-width:1.75;stroke-linecap:butt;stroke-linejoin:miter;stroke-miterlimit:4;stroke-dasharray:none;stroke-opacity:1"
           d="m 57.279026,183.28797 v 5.43778"
           id="path4590-2-6-9-2-3-0-0-9-1-10-2-4-06-7-5-4-3-1-0-08-5"
           inkscape:connector-curvature="0" />
        <path
           style="opacity:1;fill:none;stroke:#e6e6e6;stroke-width:1.75;stroke-linecap:butt;stroke-linejoin:miter;stroke-miterlimit:4;stroke-dasharray:none;stroke-opacity:1"
           d="m 53.880416,183.28797 v 5.43778"
           id="path4590-7-0-94-9-8-9-0-1-4-4-7-9-3-6-74-8-0-4-9-3"
           inkscape:connector-curvature="0" />
        <path
           style="opacity:1;fill:none;stroke:#e6e6e6;stroke-width:1.75;stroke-linecap:butt;stroke-linejoin:miter;stroke-miterlimit:4;stroke-dasharray:none;stroke-opacity:1"
           d="m 50.481806,183.28797 v 5.43778"
           id="path4590-2-5-2-3-2-1-8-2-3-2-5-9-2-3-2-4-6-3-1-0-3"
           inkscape:connector-curvature="0" />
        <path
           style="opacity:1;fill:none;stroke:#e6e6e6;stroke-width:1.75;stroke-linecap:butt;stroke-linejoin:miter;stroke-miterlimit:4;stroke-dasharray:none;stroke-opacity:1"
           d="m 47.083196,183.28797 v 5.43778"
           id="path4590-2-6-3-8-5-8-9-8-4-5-7-1-72-1-8-9-3-0-59-7-1-8"
           inkscape:connector-curvature="0" />
        <path
           style="opacity:1;fill:none;stroke:#e6e6e6;stroke-width:1.75;stroke-linecap:butt;stroke-linejoin:miter;stroke-miterlimit:4;stroke-dasharray:none;stroke-opacity:1"
           d="m 43.684586,183.28797 v 5.43778"
           id="path4590-20-8-7-0-7-8-6-3-4-7-2-7-9-1-0-4-4-9-3-2"
           inkscape:connector-curvature="0" />
        <path
           style="opacity:1;fill:none;stroke:#e6e6e6;stroke-width:1.75;stroke-linecap:butt;stroke-linejoin:miter;stroke-miterlimit:4;stroke-dasharray:none;stroke-opacity:1"
           d="m 40.285976,183.28797 v 5.43778"
           id="path4590-2-55-0-4-1-8-4-5-4-03-5-16-7-5-2-7-8-8-3-4-8"
           inkscape:connector-curvature="0" />
        <path
           style="opacity:1;fill:none;stroke:#e6e6e6;stroke-width:1.75;stroke-linecap:butt;stroke-linejoin:miter;stroke-miterlimit:4;stroke-dasharray:none;stroke-opacity:1"
           d="m 36.887356,183.28797 v 5.43778"
           id="path4590-2-6-9-0-1-89-5-7-1-5-2-7-3-9-5-7-8-8-4-6-8-5"
           inkscape:connector-curvature="0" />
        <path
           style="opacity:1;fill:none;stroke:#e6e6e6;stroke-width:1.75;stroke-linecap:butt;stroke-linejoin:miter;stroke-miterlimit:4;stroke-dasharray:none;stroke-opacity:1"
           d="m 33.488746,183.28797 v 5.43778"
           id="path4590-7-0-9-4-1-3-1-3-0-8-1-0-7-3-0-6-8-6-2-5-8"
           inkscape:connector-curvature="0" />
        <path
           style="opacity:1;fill:none;stroke:#e6e6e6;stroke-width:1.75;stroke-linecap:butt;stroke-linejoin:miter;stroke-miterlimit:4;stroke-dasharray:none;stroke-opacity:1"
           d="m 70.736376,183.28797 v 5.43778"
           id="path4590-2-55-5-7-5-1-5-0-2-3-7-2-6-8-9-8-9-9-1-8-0"
           inkscape:connector-curvature="0" />
        <path
           style="opacity:1;fill:none;stroke:#e6e6e6;stroke-width:1.75;stroke-linecap:butt;stroke-linejoin:miter;stroke-miterlimit:4;stroke-dasharray:none;stroke-opacity:1"
           d="m 67.337756,183.28797 v 5.43778"
           id="path4590-2-6-9-2-3-0-0-9-1-10-2-5-1-2-6-3-8-7-2-2-2-8"
           inkscape:connector-curvature="0" />
      </g>
      <g
         style="stroke:#e6e6e6;stroke-opacity:1"
         id="g2019-6-6-4-7-9-5-2-6"
         transform="translate(198.05862,-241.29195)">
        <path
           style="opacity:1;fill:none;stroke:#e6e6e6;stroke-width:1.75;stroke-linecap:butt;stroke-linejoin:miter;stroke-miterlimit:4;stroke-dasharray:none;stroke-opacity:1"
           d="m 64.076256,183.28797 v 5.43778"
           id="path4590-20-0-4-3-4-2-8-2-8-7-0-5-7-0-3-6-0-3-0-9"
           inkscape:connector-curvature="0" />
        <path
           style="opacity:1;fill:none;stroke:#e6e6e6;stroke-width:1.75;stroke-linecap:butt;stroke-linejoin:miter;stroke-miterlimit:4;stroke-dasharray:none;stroke-opacity:1"
           d="m 60.677646,183.28797 v 5.43778"
           id="path4590-2-55-5-7-5-1-5-0-2-3-3-3-8-5-6-1-4-30-9-6-3"
           inkscape:connector-curvature="0" />
        <path
           style="opacity:1;fill:none;stroke:#e6e6e6;stroke-width:1.75;stroke-linecap:butt;stroke-linejoin:miter;stroke-miterlimit:4;stroke-dasharray:none;stroke-opacity:1"
           d="m 43.684586,183.28797 v 5.43778"
           id="path4590-2-1-2-2-0-9-7-9-8-4-69-42-6-7-5-3-2-4-3-3-1-36-3"
           inkscape:connector-curvature="0" />
        <path
           style="opacity:1;fill:none;stroke:#e6e6e6;stroke-width:1.75;stroke-linecap:butt;stroke-linejoin:miter;stroke-miterlimit:4;stroke-dasharray:none;stroke-opacity:1"
           d="m 57.279026,183.28797 v 5.43778"
           id="path4590-2-6-9-2-3-0-0-9-1-10-2-4-06-7-5-6-9-0-3-8-1-7"
           inkscape:connector-curvature="0" />
        <path
           style="opacity:1;fill:none;stroke:#e6e6e6;stroke-width:1.75;stroke-linecap:butt;stroke-linejoin:miter;stroke-miterlimit:4;stroke-dasharray:none;stroke-opacity:1"
           d="m 53.880416,183.28797 v 5.43778"
           id="path4590-7-0-94-9-8-9-0-1-4-4-7-9-3-6-1-2-3-7-8-0-4"
           inkscape:connector-curvature="0" />
        <path
           style="opacity:1;fill:none;stroke:#e6e6e6;stroke-width:1.75;stroke-linecap:butt;stroke-linejoin:miter;stroke-miterlimit:4;stroke-dasharray:none;stroke-opacity:1"
           d="m 50.481806,183.28797 v 5.43778"
           id="path4590-2-5-2-3-2-1-8-2-3-2-5-9-2-3-2-8-0-0-9-7-5-3"
           inkscape:connector-curvature="0" />
        <path
           style="opacity:1;fill:none;stroke:#e6e6e6;stroke-width:1.75;stroke-linecap:butt;stroke-linejoin:miter;stroke-miterlimit:4;stroke-dasharray:none;stroke-opacity:1"
           d="m 47.083196,183.28797 v 5.43778"
           id="path4590-2-6-3-8-5-8-9-8-4-5-7-1-72-1-8-9-7-6-9-4-0-7-7"
           inkscape:connector-curvature="0" />
        <path
           style="opacity:1;fill:none;stroke:#e6e6e6;stroke-width:1.75;stroke-linecap:butt;stroke-linejoin:miter;stroke-miterlimit:4;stroke-dasharray:none;stroke-opacity:1"
           d="m 43.684586,183.28797 v 5.43778"
           id="path4590-20-8-7-0-7-8-6-3-4-7-2-7-9-1-9-8-2-99-5-4-1"
           inkscape:connector-curvature="0" />
        <path
           style="opacity:1;fill:none;stroke:#e6e6e6;stroke-width:1.75;stroke-linecap:butt;stroke-linejoin:miter;stroke-miterlimit:4;stroke-dasharray:none;stroke-opacity:1"
           d="m 40.285976,183.28797 v 5.43778"
           id="path4590-2-55-0-4-1-8-4-5-4-03-5-16-7-5-2-2-9-5-1-2-2-3"
           inkscape:connector-curvature="0" />
        <path
           style="opacity:1;fill:none;stroke:#e6e6e6;stroke-width:1.75;stroke-linecap:butt;stroke-linejoin:miter;stroke-miterlimit:4;stroke-dasharray:none;stroke-opacity:1"
           d="m 36.887356,183.28797 v 5.43778"
           id="path4590-2-6-9-0-1-89-5-7-1-5-2-7-3-9-5-7-0-2-4-9-7-0-9"
           inkscape:connector-curvature="0" />
        <path
           style="opacity:1;fill:none;stroke:#e6e6e6;stroke-width:1.75;stroke-linecap:butt;stroke-linejoin:miter;stroke-miterlimit:4;stroke-dasharray:none;stroke-opacity:1"
           d="m 33.488746,183.28797 v 5.43778"
           id="path4590-7-0-9-4-1-3-1-3-0-8-1-0-7-3-0-2-6-0-4-9-0-6"
           inkscape:connector-curvature="0" />
        <path
           style="opacity:1;fill:none;stroke:#e6e6e6;stroke-width:1.75;stroke-linecap:butt;stroke-linejoin:miter;stroke-miterlimit:4;stroke-dasharray:none;stroke-opacity:1"
           d="m 70.736376,183.28797 v 5.43778"
           id="path4590-2-55-5-7-5-1-5-0-2-3-7-2-6-8-9-3-6-5-2-1-3-4"
           inkscape:connector-curvature="0" />
        <path
           style="opacity:1;fill:none;stroke:#e6e6e6;stroke-width:1.75;stroke-linecap:butt;stroke-linejoin:miter;stroke-miterlimit:4;stroke-dasharray:none;stroke-opacity:1"
           d="m 67.337756,183.28797 v 5.43778"
           id="path4590-2-6-9-2-3-0-0-9-1-10-2-5-1-2-6-3-7-4-9-0-9-39-2"
           inkscape:connector-curvature="0" />
      </g>
      <g
         style="stroke:#e6e6e6;stroke-opacity:1"
         id="g2019-6-5-9-4-65-6-0-0"
         transform="rotate(-90,6.2251427,-33.397959)">
        <path
           style="opacity:1;fill:none;stroke:#e6e6e6;stroke-width:1.75;stroke-linecap:butt;stroke-linejoin:miter;stroke-miterlimit:4;stroke-dasharray:none;stroke-opacity:1"
           d="m 64.076256,183.28797 v 5.43778"
           id="path4590-20-0-4-3-4-2-8-2-8-7-0-5-7-9-5-6-9-3-43-2"
           inkscape:connector-curvature="0" />
        <path
           style="opacity:1;fill:none;stroke:#e6e6e6;stroke-width:1.75;stroke-linecap:butt;stroke-linejoin:miter;stroke-miterlimit:4;stroke-dasharray:none;stroke-opacity:1"
           d="m 60.677646,183.28797 v 5.43778"
           id="path4590-2-55-5-7-5-1-5-0-2-3-3-3-8-5-2-0-9-5-6-34-9"
           inkscape:connector-curvature="0" />
        <path
           style="opacity:1;fill:none;stroke:#e6e6e6;stroke-width:1.75;stroke-linecap:butt;stroke-linejoin:miter;stroke-miterlimit:4;stroke-dasharray:none;stroke-opacity:1"
           d="m 43.684586,183.28797 v 5.43778"
           id="path4590-2-1-2-2-0-9-7-9-8-4-69-42-6-7-5-3-28-4-2-6-8-2-5"
           inkscape:connector-curvature="0" />
        <path
           style="opacity:1;fill:none;stroke:#e6e6e6;stroke-width:1.75;stroke-linecap:butt;stroke-linejoin:miter;stroke-miterlimit:4;stroke-dasharray:none;stroke-opacity:1"
           d="m 57.279026,183.28797 v 5.43778"
           id="path4590-2-6-9-2-3-0-0-9-1-10-2-4-06-7-5-9-8-2-1-4-4-7"
           inkscape:connector-curvature="0" />
        <path
           style="opacity:1;fill:none;stroke:#e6e6e6;stroke-width:1.75;stroke-linecap:butt;stroke-linejoin:miter;stroke-miterlimit:4;stroke-dasharray:none;stroke-opacity:1"
           d="m 53.880416,183.28797 v 5.43778"
           id="path4590-7-0-94-9-8-9-0-1-4-4-7-9-3-6-7-7-4-1-6-5-4"
           inkscape:connector-curvature="0" />
        <path
           style="opacity:1;fill:none;stroke:#e6e6e6;stroke-width:1.75;stroke-linecap:butt;stroke-linejoin:miter;stroke-miterlimit:4;stroke-dasharray:none;stroke-opacity:1"
           d="m 50.481806,183.28797 v 5.43778"
           id="path4590-2-5-2-3-2-1-8-2-3-2-5-9-2-3-2-3-1-7-4-6-3-6"
           inkscape:connector-curvature="0" />
        <path
           style="opacity:1;fill:none;stroke:#e6e6e6;stroke-width:1.75;stroke-linecap:butt;stroke-linejoin:miter;stroke-miterlimit:4;stroke-dasharray:none;stroke-opacity:1"
           d="m 47.083196,183.28797 v 5.43778"
           id="path4590-2-6-3-8-5-8-9-8-4-5-7-1-72-1-8-9-6-7-7-3-7-8-4"
           inkscape:connector-curvature="0" />
        <path
           style="opacity:1;fill:none;stroke:#e6e6e6;stroke-width:1.75;stroke-linecap:butt;stroke-linejoin:miter;stroke-miterlimit:4;stroke-dasharray:none;stroke-opacity:1"
           d="m 43.684586,183.28797 v 5.43778"
           id="path4590-20-8-7-0-7-8-6-3-4-7-2-7-9-1-1-2-5-72-2-1-9"
           inkscape:connector-curvature="0" />
        <path
           style="opacity:1;fill:none;stroke:#e6e6e6;stroke-width:1.75;stroke-linecap:butt;stroke-linejoin:miter;stroke-miterlimit:4;stroke-dasharray:none;stroke-opacity:1"
           d="m 40.285976,183.28797 v 5.43778"
           id="path4590-2-55-0-4-1-8-4-5-4-03-5-16-7-5-2-29-7-4-73-7-1-1"
           inkscape:connector-curvature="0" />
        <path
           style="opacity:1;fill:none;stroke:#e6e6e6;stroke-width:1.75;stroke-linecap:butt;stroke-linejoin:miter;stroke-miterlimit:4;stroke-dasharray:none;stroke-opacity:1"
           d="m 36.887356,183.28797 v 5.43778"
           id="path4590-2-6-9-0-1-89-5-7-1-5-2-7-3-9-5-7-3-2-8-3-4-3-2"
           inkscape:connector-curvature="0" />
        <path
           style="opacity:1;fill:none;stroke:#e6e6e6;stroke-width:1.75;stroke-linecap:butt;stroke-linejoin:miter;stroke-miterlimit:4;stroke-dasharray:none;stroke-opacity:1"
           d="m 33.488746,183.28797 v 5.43778"
           id="path4590-7-0-9-4-1-3-1-3-0-8-1-0-7-3-0-1-26-1-9-1-1-3"
           inkscape:connector-curvature="0" />
        <path
           style="opacity:1;fill:none;stroke:#e6e6e6;stroke-width:1.75;stroke-linecap:butt;stroke-linejoin:miter;stroke-miterlimit:4;stroke-dasharray:none;stroke-opacity:1"
           d="m 70.736376,183.28797 v 5.43778"
           id="path4590-2-55-5-7-5-1-5-0-2-3-7-2-6-8-9-9-1-2-24-0-58-1"
           inkscape:connector-curvature="0" />
        <path
           style="opacity:1;fill:none;stroke:#e6e6e6;stroke-width:1.75;stroke-linecap:butt;stroke-linejoin:miter;stroke-miterlimit:4;stroke-dasharray:none;stroke-opacity:1"
           d="m 67.337756,183.28797 v 5.43778"
           id="path4590-2-6-9-2-3-0-0-9-1-10-2-5-1-2-6-3-4-0-8-44-0-1-8"
           inkscape:connector-curvature="0" />
      </g>
      <g
         style="stroke:#e6e6e6;stroke-opacity:1"
         id="g2019-6-5-7-6-9-99-6-3-1"
         transform="rotate(-90,30.225432,-57.398248)">
        <path
           style="opacity:1;fill:none;stroke:#e6e6e6;stroke-width:1.75;stroke-linecap:butt;stroke-linejoin:miter;stroke-miterlimit:4;stroke-dasharray:none;stroke-opacity:1"
           d="m 64.076256,183.28797 v 5.43778"
           id="path4590-20-0-4-3-4-2-8-2-8-7-0-5-7-9-8-1-3-3-4-3-3"
           inkscape:connector-curvature="0" />
        <path
           style="opacity:1;fill:none;stroke:#e6e6e6;stroke-width:1.75;stroke-linecap:butt;stroke-linejoin:miter;stroke-miterlimit:4;stroke-dasharray:none;stroke-opacity:1"
           d="m 60.677646,183.28797 v 5.43778"
           id="path4590-2-55-5-7-5-1-5-0-2-3-3-3-8-5-2-4-5-6-8-4-9-8"
           inkscape:connector-curvature="0" />
        <path
           style="opacity:1;fill:none;stroke:#e6e6e6;stroke-width:1.75;stroke-linecap:butt;stroke-linejoin:miter;stroke-miterlimit:4;stroke-dasharray:none;stroke-opacity:1"
           d="m 43.684586,183.28797 v 5.43778"
           id="path4590-2-1-2-2-0-9-7-9-8-4-69-42-6-7-5-3-28-5-9-8-3-3-7-9"
           inkscape:connector-curvature="0" />
        <path
           style="opacity:1;fill:none;stroke:#e6e6e6;stroke-width:1.75;stroke-linecap:butt;stroke-linejoin:miter;stroke-miterlimit:4;stroke-dasharray:none;stroke-opacity:1"
           d="m 57.279026,183.28797 v 5.43778"
           id="path4590-2-6-9-2-3-0-0-9-1-10-2-4-06-7-5-9-0-4-0-2-7-5-2"
           inkscape:connector-curvature="0" />
        <path
           style="opacity:1;fill:none;stroke:#e6e6e6;stroke-width:1.75;stroke-linecap:butt;stroke-linejoin:miter;stroke-miterlimit:4;stroke-dasharray:none;stroke-opacity:1"
           d="m 53.880416,183.28797 v 5.43778"
           id="path4590-7-0-94-9-8-9-0-1-4-4-7-9-3-6-7-3-9-2-9-3-4-4"
           inkscape:connector-curvature="0" />
        <path
           style="opacity:1;fill:none;stroke:#e6e6e6;stroke-width:1.75;stroke-linecap:butt;stroke-linejoin:miter;stroke-miterlimit:4;stroke-dasharray:none;stroke-opacity:1"
           d="m 50.481806,183.28797 v 5.43778"
           id="path4590-2-5-2-3-2-1-8-2-3-2-5-9-2-3-2-3-6-0-1-54-4-4-5"
           inkscape:connector-curvature="0" />
        <path
           style="opacity:1;fill:none;stroke:#e6e6e6;stroke-width:1.75;stroke-linecap:butt;stroke-linejoin:miter;stroke-miterlimit:4;stroke-dasharray:none;stroke-opacity:1"
           d="m 47.083196,183.28797 v 5.43778"
           id="path4590-2-6-3-8-5-8-9-8-4-5-7-1-72-1-8-9-6-1-9-0-39-7-9-1"
           inkscape:connector-curvature="0" />
        <path
           style="opacity:1;fill:none;stroke:#e6e6e6;stroke-width:1.75;stroke-linecap:butt;stroke-linejoin:miter;stroke-miterlimit:4;stroke-dasharray:none;stroke-opacity:1"
           d="m 43.684586,183.28797 v 5.43778"
           id="path4590-20-8-7-0-7-8-6-3-4-7-2-7-9-1-1-0-1-5-4-2-6-0"
           inkscape:connector-curvature="0" />
        <path
           style="opacity:1;fill:none;stroke:#e6e6e6;stroke-width:1.75;stroke-linecap:butt;stroke-linejoin:miter;stroke-miterlimit:4;stroke-dasharray:none;stroke-opacity:1"
           d="m 40.285976,183.28797 v 5.43778"
           id="path4590-2-55-0-4-1-8-4-5-4-03-5-16-7-5-2-29-6-7-1-9-1-7-0"
           inkscape:connector-curvature="0" />
        <path
           style="opacity:1;fill:none;stroke:#e6e6e6;stroke-width:1.75;stroke-linecap:butt;stroke-linejoin:miter;stroke-miterlimit:4;stroke-dasharray:none;stroke-opacity:1"
           d="m 36.887356,183.28797 v 5.43778"
           id="path4590-2-6-9-0-1-89-5-7-1-5-2-7-3-9-5-7-3-3-7-1-5-7-2-1"
           inkscape:connector-curvature="0" />
        <path
           style="opacity:1;fill:none;stroke:#e6e6e6;stroke-width:1.75;stroke-linecap:butt;stroke-linejoin:miter;stroke-miterlimit:4;stroke-dasharray:none;stroke-opacity:1"
           d="m 33.488746,183.28797 v 5.43778"
           id="path4590-7-0-9-4-1-3-1-3-0-8-1-0-7-3-0-1-2-1-0-5-9-1-3"
           inkscape:connector-curvature="0" />
        <path
           style="opacity:1;fill:none;stroke:#e6e6e6;stroke-width:1.75;stroke-linecap:butt;stroke-linejoin:miter;stroke-miterlimit:4;stroke-dasharray:none;stroke-opacity:1"
           d="m 70.736376,183.28797 v 5.43778"
           id="path4590-2-55-5-7-5-1-5-0-2-3-7-2-6-8-9-9-0-1-8-73-5-0-3"
           inkscape:connector-curvature="0" />
        <path
           style="opacity:1;fill:none;stroke:#e6e6e6;stroke-width:1.75;stroke-linecap:butt;stroke-linejoin:miter;stroke-miterlimit:4;stroke-dasharray:none;stroke-opacity:1"
           d="m 67.337756,183.28797 v 5.43778"
           id="path4590-2-6-9-2-3-0-0-9-1-10-2-5-1-2-6-3-4-6-5-5-9-6-1-0"
           inkscape:connector-curvature="0" />
      </g>
    </g>
    <rect
       style="opacity:1;fill:#4a4a4a;fill-opacity:1;stroke:#e6e6e6;stroke-width:1.75;stroke-linecap:butt;stroke-miterlimit:4;stroke-dasharray:none;stroke-opacity:1"
       id="rect2689-4-7-1-0-4-9-8-31-8-3-0"
       width="27.872549"
       height="27.872549"
       x="-32.243496"
       y="16.291531"
       rx="0.19670609" />
    <path
       inkscape:connector-curvature="0"
       id="path2535-4-6-4-1-4-0-5-3-9-8-0-9-7-0"
       d="m -23.56339,21.968306 c -2.92653,0 -4.8564,1.80139 -4.8564,4.5025 0,1.58369 0.76554,3.35357 2.52794,4.96805 l 7.37984,6.8583 0.88866,-4.60706 -1.50287,0.7902 0.74967,-5.75825 -1.28215,0.43597 0.72456,-4.97321 c -1.25952,-1.33702 -2.27713,-2.2165 -4.62925,-2.2165 z m 10.51106,0 c -1.87957,0 -2.90595,0.56105 -3.88506,1.46845 l -0.6451,3.45005 1.56368,-0.65185 -1.27347,5.08806 1.83684,-0.45623 -2.88057,7.59382 0.0286,0.0267 7.58513,-7.04845 c 1.76239,-1.61429 2.52761,-3.38436 2.52761,-4.96805 0,-2.70111 -1.92973,-4.5025 -4.85769,-4.5025 z"
       style="opacity:1;fill:#ff00ff;fill-opacity:1;stroke:none;stroke-width:1.75000012;stroke-miterlimit:4;stroke-dasharray:none;stroke-opacity:1" />
    <path
       inkscape:connector-curvature="0"
       style="opacity:1;fill:#e6e6e6;fill-opacity:1;stroke:#4a4a4a;stroke-width:1.40366447;stroke-linecap:butt;stroke-miterlimit:4;stroke-dasharray:none;stroke-opacity:1"
       d="m -54.4384,31.731234 0.003,0.0028 a 6.0157048,6.0157048 0 0 0 -1.45139,5.699447 6.0157048,6.0157048 0 0 0 4.25393,4.253927 6.0157048,6.0157048 0 0 0 5.69681,-1.454021 l 0.005,0.0051 0.10845,-0.108448 36.3943,-36.394309 0.22715,-0.22714 -0.007,-0.007 a 6.0157048,6.0157048 0 0 0 1.33738,-5.57606 6.0157048,6.0157048 0 0 0 -4.25393,-4.25392 6.0157048,6.0157048 0 0 0 -5.57195,1.34148 l -0.0115,-0.0115 -0.22714,0.22715 -36.39431,36.394304 z"
       id="rect7559-2-1-4-5-0-4-7-2" />
    <g
       aria-label="don't Panic"
       transform="rotate(-45)"
       style="font-style:normal;font-variant:normal;font-weight:normal;font-stretch:normal;font-size:8.48882771px;line-height:1.25;font-family:Track;-inkscape-font-specification:Track;text-align:center;letter-spacing:0px;word-spacing:0px;text-anchor:middle;fill:#ff00ff;fill-opacity:1;stroke:none;stroke-width:0.21222068"
       id="text1707-2-27-1-8-1-9-5-3-6-2">
      <path
         d="m -59.453138,-12.298899 v 4.5330336 h 1.553455 q 0.322576,0 0.602707,-0.1188436 0.28862,-0.1273324 0.500841,-0.3395531 0.220709,-0.2207095 0.339553,-0.5008408 0.127332,-0.2801313 0.127332,-0.6027068 v -1.4091453 q 0,-0.314087 -0.127332,-0.594218 -0.118844,-0.28862 -0.339553,-0.500841 -0.212221,-0.220709 -0.500841,-0.339553 -0.280131,-0.127332 -0.602707,-0.127332 z m 1.553455,-1.129014 q 0.560263,0 1.044126,0.21222 0.492352,0.212221 0.857372,0.577241 0.373508,0.365019 0.585729,0.857371 0.212221,0.492352 0.212221,1.044126 v 1.4091453 q 0,0.5517738 -0.212221,1.0441258 -0.212221,0.492352 -0.585729,0.8573716 -0.36502,0.3650196 -0.857372,0.5772403 -0.483863,0.2122207 -1.044126,0.2122207 h -2.402338 q -0.118844,0 -0.195243,-0.076399 -0.0764,-0.076399 -0.0764,-0.195243 l -0.01698,-6.2477772 q 0,-0.101866 0.08489,-0.186754 0.08489,-0.08489 0.203732,-0.08489 z"
         style="text-align:center;text-anchor:middle;fill:#ff00ff;fill-opacity:1;stroke-width:0.21222068"
         id="path10912" />
      <path
         d="m -48.795832,-9.3787427 q 0,0.5857292 -0.237687,1.1035476 -0.229199,0.5093297 -0.636662,0.891327 -0.398975,0.3819972 -0.94226,0.6027067 -0.534796,0.2207095 -1.145992,0.2207095 -0.611196,0 -1.154481,-0.2207095 -0.534796,-0.2207095 -0.942259,-0.6027067 -0.407464,-0.3819973 -0.645151,-0.891327 -0.229199,-0.5178184 -0.229199,-1.1035476 v -1.3327463 q 0,-0.585729 0.237688,-1.095058 0.237687,-0.517819 0.636662,-0.891327 0.407463,-0.381998 0.950748,-0.602707 0.543285,-0.22071 1.154481,-0.22071 0.611195,0 1.145992,0.22071 0.543285,0.220709 0.94226,0.602707 0.407463,0.373508 0.636662,0.891327 0.229198,0.509329 0.229198,1.095058 z m -1.145992,-1.3327463 q 0,-0.35653 -0.14431,-0.670617 -0.14431,-0.314087 -0.390486,-0.551774 -0.246176,-0.237687 -0.57724,-0.373508 -0.331065,-0.135821 -0.704573,-0.135821 -0.373508,0 -0.713061,0.14431 -0.331065,0.135821 -0.577241,0.373508 -0.246176,0.229198 -0.390486,0.543285 -0.14431,0.314087 -0.14431,0.670617 v 1.3327463 q 0,0.3565308 0.14431,0.6706174 0.14431,0.3140867 0.390486,0.5517738 0.246176,0.2376872 0.577241,0.3735084 0.339553,0.1358213 0.713061,0.1358213 0.373508,0 0.704573,-0.1358213 0.331064,-0.1358212 0.57724,-0.3735084 0.246176,-0.2376871 0.390486,-0.5517738 0.14431,-0.3140866 0.14431,-0.6706174 z"
         style="text-align:center;text-anchor:middle;fill:#ff00ff;fill-opacity:1;stroke-width:0.21222068"
         id="path10914" />
      <path
         d="m -43.071994,-6.9084938 q 0,0.1018659 -0.08489,0.1867542 -0.0764,0.084888 -0.195243,0.084888 h -0.57724 q -0.161288,0 -0.237687,-0.1273324 -0.381998,-0.5687515 -0.747017,-1.1035476 -0.356531,-0.543285 -0.72155,-1.0695923 -0.356531,-0.5347962 -0.721551,-1.0780814 -0.365019,-0.543285 -0.755505,-1.120525 v 4.2274362 q 0,0.1018659 -0.08489,0.1867542 -0.0764,0.084888 -0.195243,0.084888 h -0.585729 q -0.118844,0 -0.186754,-0.084888 -0.06791,-0.084888 -0.06791,-0.1867542 l -0.01698,-6.2477772 q 0,-0.101866 0.0764,-0.186754 0.0764,-0.08489 0.195243,-0.08489 h 0.628173 q 0.152799,0 0.229199,0.135821 v -0.0085 l 2.911668,4.380235 v -4.235925 q 0,-0.101866 0.0764,-0.186754 0.08489,-0.08489 0.203732,-0.08489 h 0.57724 q 0.118844,0 0.195243,0.08489 0.08489,0.08489 0.08489,0.186754 z"
         style="text-align:center;text-anchor:middle;fill:#ff00ff;fill-opacity:1;stroke-width:0.21222068"
         id="path10916" />
      <path
         d="m -42.208009,-11.042553 q -0.101865,0 -0.186754,-0.0764 -0.08489,-0.08489 -0.08489,-0.203732 v -1.867542 q 0,-0.118844 0.08489,-0.195243 0.08489,-0.0764 0.186754,-0.0764 h 0.517819 q 0.101866,0 0.186754,0.0764 0.08489,0.0764 0.08489,0.195243 v 1.867542 q 0,0.118843 -0.08489,0.203732 -0.08489,0.0764 -0.186754,0.0764 z"
         style="text-align:center;text-anchor:middle;fill:#ff00ff;fill-opacity:1;stroke-width:0.21222068"
         id="path10918" />
      <path
         d="m -37.855741,-12.332855 v 5.3649394 q 0,0.1273324 -0.04244,0.2291984 -0.03396,0.1018659 -0.229199,0.1018659 h -0.585729 q -0.195243,0 -0.237687,-0.1018659 -0.03395,-0.101866 -0.03395,-0.2291984 v -5.3649394 h -1.646833 q -0.220709,0 -0.280131,-0.05942 -0.05942,-0.06791 -0.05942,-0.271643 v -0.43293 q 0,-0.127333 0.03396,-0.229199 0.04244,-0.101865 0.237688,-0.101865 h 4.524545 q 0.195243,0 0.237687,0.101865 0.04244,0.101866 0.04244,0.229199 v 0.43293 q 0,0.203732 -0.05942,0.271643 -0.05093,0.05942 -0.271642,0.05942 z"
         style="text-align:center;text-anchor:middle;fill:#ff00ff;fill-opacity:1;stroke-width:0.21222068"
         id="path10920" />
      <path
         d="m -28.807712,-10.516246 q -0.22071,0.14431 -0.381997,0.254665 -0.161288,0.101866 -0.280132,0.169777 l -2.224073,1.2308798 v 1.8930086 q 0,0.1273324 -0.04244,0.2291984 -0.03396,0.1018659 -0.229198,0.1018659 h -0.57724 q -0.118844,0 -0.195243,-0.084888 -0.06791,-0.084888 -0.06791,-0.1867542 l -0.01698,-6.2477772 q 0,-0.101866 0.0764,-0.186754 0.08489,-0.08489 0.203732,-0.08489 h 2.852246 q 0.458396,0 0.780972,0.169776 0.322575,0.161288 0.50933,0.424441 0.195243,0.254665 0.254664,0.58573 0.06791,0.322575 0.0085,0.64515 -0.05093,0.322576 -0.220709,0.611196 -0.169777,0.28862 -0.449908,0.475374 z m -2.886202,-1.782653 v 2.164651 q 0.322576,-0.169777 0.687595,-0.36502 0.36502,-0.203732 0.687595,-0.398975 0.0764,-0.04244 0.195243,-0.118843 0.127333,-0.0764 0.246177,-0.161288 0.127332,-0.08489 0.229198,-0.161288 0.101866,-0.08489 0.135821,-0.135821 0.169777,-0.271643 0.101866,-0.543285 -0.06791,-0.280131 -0.339553,-0.280131 z"
         style="text-align:center;text-anchor:middle;fill:#ff00ff;fill-opacity:1;stroke-width:0.21222068"
         id="path10922" />
      <path
         d="m -23.38591,-6.9084938 q 0,0.2716425 -0.271642,0.2716425 h -0.611196 q -0.135821,0 -0.186754,-0.059422 -0.04244,-0.067911 -0.08489,-0.1612877 l -0.772484,-2.2325617 -2.088251,0.9252822 -0.466886,1.3072795 q -0.04244,0.1018659 -0.08489,0.1612877 -0.04244,0.059422 -0.195243,0.059422 h -0.585729 q -0.101866,0 -0.195243,-0.076399 -0.08489,-0.076399 -0.08489,-0.195243 0,-0.00849 0.08489,-0.2546648 0.08489,-0.2546649 0.220709,-0.6621286 0.14431,-0.4159525 0.322576,-0.9422599 0.178265,-0.5347961 0.365019,-1.0950587 0.195243,-0.5687512 0.381998,-1.1205252 0.195243,-0.560263 0.35653,-1.018659 0.161288,-0.458397 0.271643,-0.780973 0.118844,-0.322575 0.161288,-0.424441 0.04244,-0.09338 0.09338,-0.152799 0.05093,-0.06791 0.178265,-0.06791 h 0.747017 q 0.127332,0 0.169777,0.06791 0.05093,0.06791 0.09338,0.152799 l 2.17314,6.1968443 q 0.0085,0.042444 0.0085,0.059422 0,0.016978 0,0.042444 z m -2.334427,-3.3106432 q -0.0764,-0.203731 -0.127333,-0.331064 -0.05093,-0.135821 -0.06791,-0.203732 -0.01698,-0.06791 -0.04244,-0.127332 -0.02547,-0.06791 -0.04244,-0.135821 -0.04244,-0.127333 -0.09338,-0.271643 -0.04244,-0.14431 -0.110354,-0.339553 l -0.687595,1.9269639 z"
         style="text-align:center;text-anchor:middle;fill:#ff00ff;fill-opacity:1;stroke-width:0.21222068"
         id="path10924" />
      <path
         d="m -17.887368,-6.9084938 q 0,0.1018659 -0.08489,0.1867542 -0.0764,0.084888 -0.195243,0.084888 h -0.57724 q -0.161288,0 -0.237688,-0.1273324 -0.381997,-0.5687515 -0.747016,-1.1035476 -0.356531,-0.543285 -0.721551,-1.0695923 -0.356531,-0.5347962 -0.72155,-1.0780814 -0.36502,-0.543285 -0.755506,-1.120525 v 4.2274362 q 0,0.1018659 -0.08489,0.1867542 -0.0764,0.084888 -0.195243,0.084888 h -0.585729 q -0.118844,0 -0.186754,-0.084888 -0.06791,-0.084888 -0.06791,-0.1867542 l -0.01698,-6.2477772 q 0,-0.101866 0.0764,-0.186754 0.0764,-0.08489 0.195243,-0.08489 h 0.628173 q 0.152799,0 0.229198,0.135821 v -0.0085 l 2.911668,4.380235 v -4.235925 q 0,-0.101866 0.0764,-0.186754 0.08489,-0.08489 0.203732,-0.08489 h 0.57724 q 0.118843,0 0.195243,0.08489 0.08489,0.08489 0.08489,0.186754 z"
         style="text-align:center;text-anchor:middle;fill:#ff00ff;fill-opacity:1;stroke-width:0.21222068"
         id="path10926" />
      <path
         d="m -15.87072,-6.9084938 q 0,0.1018659 -0.08489,0.1867542 -0.0764,0.084888 -0.195243,0.084888 h -0.577241 q -0.118843,0 -0.186754,-0.084888 -0.06791,-0.084888 -0.06791,-0.1867542 l -0.01698,-6.2477772 q 0,-0.101866 0.0764,-0.186754 0.0764,-0.08489 0.195243,-0.08489 h 0.577241 q 0.118843,0 0.195243,0.08489 0.08489,0.08489 0.08489,0.186754 z"
         style="text-align:center;text-anchor:middle;fill:#ff00ff;fill-opacity:1;stroke-width:0.21222068"
         id="path10928" />
      <path
         d="m -12.245972,-13.538268 q 0.517818,0 0.967726,0.169776 0.458397,0.169777 0.814927,0.475375 0.356531,0.305597 0.6027072,0.730039 0.246176,0.415952 0.3480419,0.908304 0,0.0085 -0.00849,0.04244 0,0.03396 0,0.04244 -0.025467,0.08489 -0.084888,0.169776 -0.059422,0.0764 -0.1782654,0.0764 h -0.5687516 q -0.110355,0 -0.169776,-0.05093 -0.05093,-0.05093 -0.09338,-0.135822 -0.06791,-0.195243 -0.127332,-0.35653 -0.05942,-0.161288 -0.169776,-0.305598 -0.229199,-0.314087 -0.577241,-0.483863 -0.348042,-0.178266 -0.755505,-0.178266 -0.339554,0 -0.645151,0.135822 -0.297109,0.127332 -0.526308,0.35653 -0.220709,0.22071 -0.35653,0.526308 -0.127333,0.305597 -0.127333,0.645151 v 1.4770556 q 0,0.348042 0.127333,0.6536398 0.135821,0.2971089 0.35653,0.5263073 0.229199,0.2207095 0.526308,0.3565307 0.305597,0.1273324 0.645151,0.1273324 0.407463,0 0.755505,-0.1782653 0.348042,-0.1782654 0.594218,-0.5008409 0.127333,-0.1697765 0.186754,-0.3395531 0.06791,-0.1782654 0.118844,-0.3904861 l -0.0085,0.016978 q 0.03396,-0.2291983 0.263154,-0.2291983 h 0.5687513 q 0.1188435,0 0.195243,0.084888 0.076399,0.084888 0.076399,0.1867542 0,0.1273325 -0.033955,0.2716425 -0.033955,0.1358213 -0.076399,0.2546649 -0.1443101,0.4074637 -0.415953,0.7555056 -0.263153,0.348042 -0.619684,0.6111956 -0.348042,0.2546649 -0.763994,0.3989749 -0.407464,0.1443101 -0.840394,0.1443101 -0.568752,0 -1.069593,-0.2122207 -0.500841,-0.2207095 -0.882838,-0.5942179 -0.373508,-0.3735085 -0.594218,-0.8743493 -0.21222,-0.5008408 -0.21222,-1.0695923 V -10.77091 q 0,-0.568752 0.21222,-1.069593 0.22071,-0.509329 0.594218,-0.882838 0.381997,-0.373508 0.882838,-0.594218 0.500841,-0.220709 1.069593,-0.220709 z"
         style="text-align:center;text-anchor:middle;fill:#ff00ff;fill-opacity:1;stroke-width:0.21222068"
         id="path10930" />
    </g>
  </g>
</svg>
