<?xml version="1.0" encoding="UTF-8" standalone="no"?>
<!-- Created with Inkscape (http://www.inkscape.org/) -->

<svg
   xmlns:dc="http://purl.org/dc/elements/1.1/"
   xmlns:cc="http://creativecommons.org/ns#"
   xmlns:rdf="http://www.w3.org/1999/02/22-rdf-syntax-ns#"
   xmlns:svg="http://www.w3.org/2000/svg"
   xmlns="http://www.w3.org/2000/svg"
   xmlns:sodipodi="http://sodipodi.sourceforge.net/DTD/sodipodi-0.dtd"
   xmlns:inkscape="http://www.inkscape.org/namespaces/inkscape"
   width="22.889912mm"
   height="29.717545mm"
   viewBox="0 0 22.889912 29.717545"
   version="1.1"
   id="svg3485"
   inkscape:version="0.92.3 (2405546, 2018-03-11)"
   sodipodi:docname="logo_cpu_falling.svg">
  <defs
     id="defs3479" />
  <sodipodi:namedview
     id="base"
     pagecolor="#ffffff"
     bordercolor="#666666"
     borderopacity="1.0"
     inkscape:pageopacity="0.0"
     inkscape:pageshadow="2"
     inkscape:zoom="1.979899"
     inkscape:cx="15.482561"
     inkscape:cy="4.8714651"
     inkscape:document-units="mm"
     inkscape:current-layer="layer1"
     showgrid="false"
     fit-margin-top="0"
     fit-margin-left="0"
     fit-margin-right="0"
     fit-margin-bottom="0"
     inkscape:window-width="1920"
     inkscape:window-height="1015"
     inkscape:window-x="0"
     inkscape:window-y="33"
     inkscape:window-maximized="1" />
  <metadata
     id="metadata3482">
    <rdf:RDF>
      <cc:Work
         rdf:about="">
        <dc:format>image/svg+xml</dc:format>
        <dc:type
           rdf:resource="http://purl.org/dc/dcmitype/StillImage" />
        <dc:title></dc:title>
      </cc:Work>
    </rdf:RDF>
  </metadata>
  <g
     inkscape:label="Layer 1"
     inkscape:groupmode="layer"
     id="layer1"
     transform="translate(117.19741,30.811868)">
    <g
       id="g853">
      <g
         transform="matrix(0.09592871,0.04590409,-0.04590409,0.09592871,-100.55392,-13.726779)"
         id="g1432"
         style="fill:#ff00ff">
        <polygon
           transform="translate(-132.10678,-15.042373)"
           style="fill:#ff00ff"
           points="13.4,93 33.7,97.1 33.7,2.9 13.4,7.3 "
           id="polygon4" />
        <path
           inkscape:connector-curvature="0"
           style="fill:#ff00ff"
           d="m -96.70678,82.057627 h 49.1 v -22 h -49.1 z m 12.2,-18.6 c 1,0 1.8,0.8 1.8,1.9 0,1 -0.8,1.9 -1.8,1.9 -1,0 -1.8,-0.8 -1.8,-1.9 0,-1 0.8,-1.9 1.8,-1.9 z m -5.7,0.3 c 0.9,0 1.5,0.7 1.5,1.6 0,0.9 -0.7,1.6 -1.5,1.6 -0.9,0 -1.5,-0.7 -1.5,-1.6 0,-0.9 0.6,-1.6 1.5,-1.6 z"
           id="path6" />
        <rect
           style="fill:#ff00ff"
           x="-89.606781"
           y="-4.3423734"
           width="34.700001"
           height="2.2"
           id="rect8" />
        <path
           inkscape:connector-curvature="0"
           style="fill:#ff00ff"
           d="m -96.70678,-12.142373 v 70.3 h 49.1 v -70.3 z m 36.1,12.40000012 h -24.3 v -0.9 h 24.3 z m 5.8,-2.40000002 h -34.8 v -2.2 h 34.7 v 2.2 z"
           id="path10" />
      </g>
      <polygon
         transform="matrix(0.26458333,0,0,0.26458333,-117.75299,-30.547365)"
         id="polygon24-6"
         points="11.975,53.071 11.975,25.877 14.121,25.877 14.121,53.071 "
         style="fill:#ff00ff" />
      <polygon
         transform="matrix(0.26458333,0,0,0.30077089,-117.54278,-30.917739)"
         id="polygon26-7"
         points="21.057,0.352 23.203,0.352 23.203,33.269 21.057,33.269 "
         style="fill:#ff00ff" />
      <polygon
         transform="matrix(0.26458333,0,0,0.33886698,-117.29753,-30.505689)"
         id="polygon28-5"
         points="28.653,29.103 28.653,8.351 30.799,8.351 30.799,29.103 "
         style="fill:#ff00ff" />
      <polygon
         transform="matrix(0.26458333,0,0,0.17849428,-119.50473,-27.002646)"
         id="polygon30-3"
         points="46.403,24.125 48.549,24.125 48.549,44.88 46.403,44.88 "
         style="fill:#ff00ff" />
      <g
         transform="matrix(0.26458333,0,0,0.26458333,-122.23494,-32.468148)"
         id="g1526"
         style="fill:#ff00ff">
        <path
           inkscape:connector-curvature="0"
           d="m 76.613258,56.961219 c -0.923,0.881 -2.022,1.315 -3.304,1.315 -1.278,0 -2.366,-0.435 -3.265,-1.315 -0.9,-0.874 -1.351,-1.95 -1.351,-3.231 0,-1.277 0.45,-2.354 1.351,-3.23 0.898,-0.875 1.986,-1.314 3.265,-1.314 1.281,0 2.381,0.439 3.304,1.314 0.926,0.876 1.384,1.954 1.384,3.23 -0.001,1.281 -0.459,2.357 -1.384,3.231 z"
           id="path34-6"
           style="fill:#ff00ff" />
        <path
           inkscape:connector-curvature="0"
           d="m 63.368258,96.910219 12.78,-19.104 -3.817,-14.927 c -0.238,-1.061 -0.064,-2.425 1.499,-3.177 l 15.8,-6.988 c 1.118,-0.494 2.428,0.012 2.924,1.131 0.496,1.119 -0.012,2.428 -1.129,2.923 l -6.634,2.935 h 12.203 c 1.225,0 2.218,0.993 2.218,2.218 0,1.225 -0.993,2.217 -2.218,2.217 h -13.56 l 4.268,16.141 c 0.141,0.567 0.144,1.98 0.096,2.503 l -2.06,15.411 c -0.097,0.756 -0.462,1.36 -1.1,1.810001 -0.641,0.449 -1.34,0.603 -2.098,0.46 -0.757,-0.14 -1.347,-0.507001 -1.772,-1.100001 -0.43,-0.592 -0.593,-1.266 -0.497,-2.023 l 1.988,-15.555 -0.713,-2.272 -13.352,20.1 c -0.613,0.948001 -1.42,1.421001 -2.414,1.421001 -0.757,0 -1.407,-0.274 -1.954,-0.817 -0.543,-0.544001 -0.813,-1.197001 -0.813,-1.953001 10e-4,-0.477 0.115,-0.926 0.355,-1.354 z"
           id="path36-2"
           style="fill:#ff00ff" />
      </g>
    </g>
    <g
       id="g857"
       transform="translate(4.3815307)">
      <g
         aria-label="Don't Panic"
         style="font-style:normal;font-variant:normal;font-weight:normal;font-stretch:normal;font-size:10.58333302px;line-height:1.25;font-family:'Nova Square';-inkscape-font-specification:'Nova Square';letter-spacing:0px;word-spacing:0px;fill:#ff00ff;fill-opacity:1;stroke:none;stroke-width:0.26458332"
         id="text1548-2">
        <path
           d="m -121.09663,-1.6248679 h 1.06109 q 0.36173,0 0.36173,-0.4099663 v -1.953369 q 0,-0.4099664 -0.36173,-0.4099664 h -1.06109 z m -0.48231,0.434082 v -3.5208873 l 0.25562,-0.1205784 h 1.28778 q 0.84405,0 0.84405,0.8440484 v 1.953369 q 0,0.8440483 -0.84405,0.8440483 z"
           style="font-style:normal;font-variant:normal;font-weight:normal;font-stretch:normal;font-size:4.93888855px;font-family:'Nova Square';-inkscape-font-specification:'Nova Square';fill:#ff00ff;stroke-width:0.26458332"
           id="path893" />
        <path
           d="m -118.02005,-1.6248679 h 0.55466 q 0.24115,0 0.24115,-0.289388 v -1.2057833 q 0,-0.289388 -0.24115,-0.289388 h -0.55466 q -0.24116,0 -0.24116,0.289388 v 1.2057833 q 0,0.289388 0.24116,0.289388 z m 0,0.434082 q -0.72347,0 -0.72347,-0.72347 v -1.2057833 q 0,-0.72347 0.72347,-0.72347 h 0.55466 q 0.72347,0 0.72347,0.72347 v 1.2057833 q 0,0.72347 -0.72347,0.72347 z"
           style="font-style:normal;font-variant:normal;font-weight:normal;font-stretch:normal;font-size:4.93888855px;font-family:'Nova Square';-inkscape-font-specification:'Nova Square';fill:#ff00ff;stroke-width:0.26458332"
           id="path895" />
        <path
           d="m -116.2809,-1.0943232 v -2.025716 q 0,-0.72347 0.72347,-0.72347 h 0.55466 q 0.72347,0 0.72347,0.72347 v 1.808675 l -0.4582,0.217041 h -0.0241 v -2.025716 q 0,-0.289388 -0.24116,-0.289388 h -0.55466 q -0.24116,0 -0.24116,0.289388 v 1.808675 l -0.4582,0.217041 z"
           style="font-style:normal;font-variant:normal;font-weight:normal;font-stretch:normal;font-size:4.93888855px;font-family:'Nova Square';-inkscape-font-specification:'Nova Square';fill:#ff00ff;stroke-width:0.26458332"
           id="path897" />
        <path
           d="m -113.44207,-4.9287142 h 0.0241 v 1.1671982 l -0.3762,0.178456 h -0.0241 v -1.1671983 z"
           style="font-style:normal;font-variant:normal;font-weight:normal;font-stretch:normal;font-size:4.93888855px;font-family:'Nova Square';-inkscape-font-specification:'Nova Square';fill:#ff00ff;stroke-width:0.26458332"
           id="path899" />
        <path
           d="m -112.63861,-1.0943232 v -2.3102809 h -0.61977 v -0.024116 l 0.19534,-0.4147894 h 0.42443 v -0.868164 l 0.4582,-0.217041 h 0.0241 v 1.085205 h 0.61977 v 0.024116 l -0.19534,0.4147895 h -0.42443 v 2.0932399 l -0.4582,0.217041 z"
           style="font-style:normal;font-variant:normal;font-weight:normal;font-stretch:normal;font-size:4.93888855px;font-family:'Nova Square';-inkscape-font-specification:'Nova Square';fill:#ff00ff;stroke-width:0.26458332"
           id="path901" />
        <path
           d="m -109.06466,-1.0943232 v -3.61735 l 0.25562,-0.1205784 h 1.28778 q 0.84405,0 0.84405,0.8440484 v 0.72347 q 0,0.8440483 -0.84405,0.8440483 h -1.06109 v 1.1093207 l -0.4582,0.217041 z m 0.48231,-3.3038464 v 1.5434027 h 1.06109 q 0.36173,0 0.36173,-0.4099663 v -0.72347 q 0,-0.4099664 -0.36173,-0.4099664 z"
           style="font-style:normal;font-variant:normal;font-weight:normal;font-stretch:normal;font-size:4.93888855px;font-family:'Nova Square';-inkscape-font-specification:'Nova Square';fill:#ff00ff;stroke-width:0.26458332"
           id="path903" />
        <path
           d="m -105.88539,-1.6248679 h 0.50643 q 0.24115,0 0.24115,-0.289388 v -0.3303846 q 0,-0.289388 -0.24115,-0.289388 h -0.50643 q -0.24116,0 -0.24116,0.289388 v 0.3303846 q 0,0.289388 0.24116,0.289388 z m 0,0.434082 q -0.72347,0 -0.72347,-0.72347 v -0.3303846 q 0,-0.72347 0.72347,-0.72347 h 0.50643 q 0.1254,0 0.24115,0.072347 v -0.2242757 q 0,-0.289388 -0.24115,-0.289388 h -0.86334 v -0.024116 l 0.19292,-0.4099663 h 0.67042 q 0.72347,0 0.72347,0.72347 v 1.808675 l -0.4582,0.217041 h -0.0241 v -0.1688097 q -0.0916,0.072347 -0.24115,0.072347 z"
           style="font-style:normal;font-variant:normal;font-weight:normal;font-stretch:normal;font-size:4.93888855px;font-family:'Nova Square';-inkscape-font-specification:'Nova Square';fill:#ff00ff;stroke-width:0.26458332"
           id="path905" />
        <path
           d="m -104.19929,-1.0943232 v -2.025716 q 0,-0.72347 0.72347,-0.72347 h 0.55466 q 0.72347,0 0.72347,0.72347 v 1.808675 l -0.4582,0.217041 h -0.0241 v -2.025716 q 0,-0.289388 -0.24115,-0.289388 h -0.55466 q -0.24116,0 -0.24116,0.289388 v 1.808675 l -0.4582,0.217041 z"
           style="font-style:normal;font-variant:normal;font-weight:normal;font-stretch:normal;font-size:4.93888855px;font-family:'Nova Square';-inkscape-font-specification:'Nova Square';fill:#ff00ff;stroke-width:0.26458332"
           id="path907" />
        <path
           d="m -101.71355,-4.3764655 q -0.0844,-0.086816 -0.0844,-0.2073947 0,-0.1229899 0.0844,-0.2098063 0.0844,-0.086816 0.20498,-0.086816 0.12058,0 0.20498,0.086816 0.0844,0.086816 0.0844,0.2098063 0,0.1205783 -0.0844,0.2073947 -0.0844,0.086816 -0.20498,0.086816 -0.12058,0 -0.20498,-0.086816 z m -0.0362,3.2821423 v -2.6286077 l 0.4582,-0.217041 h 0.0241 v 2.6286077 l -0.4582,0.217041 z"
           style="font-style:normal;font-variant:normal;font-weight:normal;font-stretch:normal;font-size:4.93888855px;font-family:'Nova Square';-inkscape-font-specification:'Nova Square';fill:#ff00ff;stroke-width:0.26458332"
           id="path909" />
        <path
           d="m -99.967161,-1.1907859 q -0.723469,0 -0.723469,-0.72347 v -1.2057833 q 0,-0.72347 0.723469,-0.72347 h 0.55466 q 0.72347,0 0.72347,0.72347 v 0.127813 l -0.458198,0.217041 h -0.02412 v -0.344854 q 0,-0.289388 -0.241157,-0.289388 h -0.55466 q -0.241159,0 -0.241159,0.289388 v 1.2057833 q 0,0.289388 0.241159,0.289388 h 0.55466 q 0.241157,0 0.241157,-0.289388 v -0.127813 l 0.458197,-0.217041 h 0.02412 v 0.344854 q 0,0.72347 -0.72347,0.72347 z"
           style="font-style:normal;font-variant:normal;font-weight:normal;font-stretch:normal;font-size:4.93888855px;font-family:'Nova Square';-inkscape-font-specification:'Nova Square';fill:#ff00ff;stroke-width:0.26458332"
           id="path911" />
      </g>
    </g>
  </g>
</svg>
