<?xml version="1.0" encoding="UTF-8" standalone="no"?>
<!-- Created with Inkscape (http://www.inkscape.org/) -->

<svg
   xmlns:dc="http://purl.org/dc/elements/1.1/"
   xmlns:cc="http://creativecommons.org/ns#"
   xmlns:rdf="http://www.w3.org/1999/02/22-rdf-syntax-ns#"
   xmlns:svg="http://www.w3.org/2000/svg"
   xmlns="http://www.w3.org/2000/svg"
   xmlns:sodipodi="http://sodipodi.sourceforge.net/DTD/sodipodi-0.dtd"
   xmlns:inkscape="http://www.inkscape.org/namespaces/inkscape"
   width="110.52496mm"
   height="73.759346mm"
   viewBox="0 0 110.52496 73.759346"
   version="1.1"
   id="svg8"
   inkscape:version="0.92.3 (2405546, 2018-03-11)"
   sodipodi:docname="logo_cpu_hacked.svg">
  <defs
     id="defs2" />
  <sodipodi:namedview
     id="base"
     pagecolor="#ffffff"
     bordercolor="#666666"
     borderopacity="1.0"
     inkscape:pageopacity="0.0"
     inkscape:pageshadow="2"
     inkscape:zoom="0.70000001"
     inkscape:cx="-376.998"
     inkscape:cy="-128.78072"
     inkscape:document-units="mm"
     inkscape:current-layer="layer1"
     showgrid="false"
     inkscape:window-width="1920"
     inkscape:window-height="1015"
     inkscape:window-x="0"
     inkscape:window-y="33"
     inkscape:window-maximized="1"
     fit-margin-top="0"
     fit-margin-left="0"
     fit-margin-right="0"
     fit-margin-bottom="0" />
  <metadata
     id="metadata5">
    <rdf:RDF>
      <cc:Work
         rdf:about="">
        <dc:format>image/svg+xml</dc:format>
        <dc:type
           rdf:resource="http://purl.org/dc/dcmitype/StillImage" />
        <dc:title />
      </cc:Work>
    </rdf:RDF>
  </metadata>
  <g
     inkscape:label="Layer 1"
     inkscape:groupmode="layer"
     id="layer1"
     transform="translate(-32.861217,-83.990741)">
    <g
       id="g934"
       transform="translate(-3.0955379,-0.52916663)">
      <g
         aria-label="don't panic"
         style="font-style:normal;font-weight:normal;font-size:10.58333302px;line-height:1.25;font-family:sans-serif;letter-spacing:0px;word-spacing:0px;fill:#00ffff;fill-opacity:1;stroke:none;stroke-width:0.26458332"
         id="text817">
        <path
           d="m 37.531853,140.5439 h 5.407422 q 3.373437,0 4.638476,2.29443 1.091406,1.78594 1.091406,5.92832 h 0.533301 v 4.24161 h -5.258594 v -0.4837 h 1.649512 v -3.75791 h -0.483691 v -1.55029 q 0,-2.61689 -1.165821,-3.33623 -0.682129,-0.38447 -2.195214,-0.38447 h -0.731739 v 5.18418 h 0.496094 v 4.32842 h -3.54707 v -4.00596 h -0.434082 z m -1.575098,12.46436 h 1.599902 v 0.5581 h 3.956348 v 1.16582 h 2.430859 v -1.16582 h 5.258594 v 1.16582 h -3.609082 v 3.1626 h -4.080371 v 0.38447 h -3.919141 q -0.06201,0 -0.06201,-0.062 v -4.65088 h -1.575098 z m 5.55625,0 h 2.430859 v 0.5581 h -2.430859 z m 7.689453,0 h 3.485059 v 0.5581 h -3.485059 z"
           style="font-style:normal;font-variant:normal;font-weight:normal;font-stretch:normal;font-size:25.39999962px;font-family:HACKED;-inkscape-font-specification:HACKED;fill:#00ffff;stroke-width:0.26458332"
           id="path837" />
        <path
           d="m 55.343981,140.5315 q 3.819922,0 5.022949,2.6665 0.682129,1.30225 0.682129,5.02295 v 0.0868 H 59.73441 v 0.59531 h 1.314649 v 6.41201 h -0.868164 v 2.30684 h -1.723926 v 0.65732 H 52.42943 v -0.65732 h -0.731738 v -2.30684 h -1.550293 v -1.81074 h 0.917773 v -0.95498 h -0.917773 v 0.95498 h -2.195215 v -0.95498 h 1.661914 q -0.02481,-2.17041 -0.02481,-3.32383 v -1.51309 q 0,-4.21679 1.42627,-5.64306 1.302246,-1.53789 4.328418,-1.53789 z m -2.17041,6.11435 h 0.03721 l -0.03721,0.0496 v 1.61231 H 51.84652 v 0.59531 h 1.327051 q -0.02481,3.83232 -0.02481,5.77949 v 0.63252 h 2.96416 v -0.97978 h 1.364258 v -0.0372 q 0,-1.81074 -0.02481,-5.04776 0,-0.13642 0.02481,-0.68212 0,-3.49746 -0.409278,-4.30362 -0.421679,-0.76894 -1.550293,-0.76894 h -0.434082 q -1.351855,0 -1.674316,1.19062 -0.148828,0.58291 -0.235644,1.95957 z m 7.875488,1.66192 h 2.133203 v 0.59531 h -2.133203 z"
           style="font-style:normal;font-variant:normal;font-weight:normal;font-stretch:normal;font-size:25.39999962px;font-family:HACKED;-inkscape-font-specification:HACKED;fill:#00ffff;stroke-width:0.26458332"
           id="path839" />
        <path
           d="m 62.210746,140.5563 h 3.621484 q 0.07441,0 1.16582,2.84014 0.08682,0.11162 2.282031,5.60586 h 0.930176 v -8.446 h 3.162598 v 10.0583 h 0.359668 v 3.91914 h -1.277442 v 0.75655 h 1.277442 v 2.33164 h -4.750098 v -2.96416 h -0.843359 q -1.711524,-4.16719 -2.306836,-5.75469 v -2.98897 h -0.446484 v 9.10332 H 64.66641 v 3.1378 h -2.96416 v -6.75928 h 0.5333 v -0.0372 q -0.0248,-8.75605 -0.0248,-10.80244 z m 5.333007,8.446 v 0.65732 h 1.971973 Q 69.280081,149.0023 69.21807,149.0023 Z m 2.691309,0 v 0.65732 h -0.694531 q 0.632519,1.5751 0.756543,2.05879 h 0.0248 v -0.0868 q -0.08682,-1.6123 -0.08682,-1.97197 h 1.438672 v -0.65732 z m -1.252637,8.94209 h 5.742285 v 0.33486 h -5.742285 z"
           style="font-style:normal;font-variant:normal;font-weight:normal;font-stretch:normal;font-size:25.39999962px;font-family:HACKED;-inkscape-font-specification:HACKED;fill:#00ffff;stroke-width:0.26458332"
           id="path841" />
        <path
           d="m 75.267458,144.53745 h -0.372071 l -0.768945,-4.45244 q -0.04961,-0.28525 -0.04961,-0.40927 0,-0.45889 0.248046,-0.70694 0.26045,-0.24804 0.744141,-0.24804 0.483691,0 0.744141,0.24804 0.272851,0.23565 0.272851,0.69453 0,0.0992 -0.04961,0.42168 z"
           style="font-style:normal;font-variant:normal;font-weight:normal;font-stretch:normal;font-size:25.39999962px;font-family:HACKED;-inkscape-font-specification:HACKED;fill:#00ffff;stroke-width:0.26458332"
           id="path843" />
        <path
           d="m 76.619315,140.50669 h 10.417968 v 2.96416 h -3.447851 v 12.29073 h 1.562695 v 0.35966 h -1.562695 v 1.35186 h -0.930176 v 0.47129 h 0.657324 v 0.33486 h -3.162598 q -0.06201,0 -0.06201,-0.062 v -14.74639 h -3.472656 z m 5.742285,15.25489 v 0.35966 h 1.203027 v -0.35966 z"
           style="font-style:normal;font-variant:normal;font-weight:normal;font-stretch:normal;font-size:25.39999962px;font-family:HACKED;-inkscape-font-specification:HACKED;fill:#00ffff;stroke-width:0.26458332"
           id="path845" />
        <path
           d="m 92.568729,140.44468 h 4.60127 q 4.030761,0 5.159371,2.08359 0.65733,1.31465 0.65733,3.34864 -0.0372,0.37207 -0.0372,0.74414 h 2.55488 v 0.85576 h -2.6417 v -0.0248 q 0.062,-0.78135 0.062,-0.83096 h -1.48828 v 0.85576 h 1.42626 v 3.02617 h -2.939351 v 1.0418 h -0.02481 q -3.398242,0.0248 -3.857128,0.0248 v 1.5751 h -0.620118 v 2.79053 h 0.347266 v 2.34404 h -2.790527 v -1.10381 h -0.384473 v -0.91777 q 0,-1.5875 -0.02481,-5.18418 h 1.686719 v -0.91777 h -1.686719 z m 3.472657,3.02617 v 5.07256 h 1.066601 v -0.73174 h 2.108399 q 0.409277,-0.38447 0.409277,-2.17041 0,-1.69912 -0.768945,-1.95957 -0.285254,-0.21084 -1.302246,-0.21084 z"
           style="font-style:normal;font-variant:normal;font-weight:normal;font-stretch:normal;font-size:25.39999962px;font-family:HACKED;-inkscape-font-specification:HACKED;fill:#00ffff;stroke-width:0.26458332"
           id="path847" />
        <path
           d="m 106.17764,140.5439 h 2.98897 q 0.062,0.26045 2.90215,9.68623 h 0.5457 v 5.8415 h -1.22783 v 0.44649 h 1.22783 v 1.25264 h -3.29902 v -3.58428 h -4.03077 v 1.52549 h -1.64951 v 2.56728 h -2.98896 v -0.17363 h 0.23564 v -2.39365 h 1.22783 v -4.97334 h 1.017 z m 1.40147,4.99814 v 0.0248 q -0.38447,2.1208 -1.48828,6.67246 h 2.77812 v -2.00918 h -0.23564 q -0.99219,-4.30361 -0.99219,-4.68809 z m -7.801076,4.66329 h 2.331636 v 0.5333 h -2.331636 z m 9.537406,7.77626 h 3.98115 v 0.29766 h -3.98115 z"
           style="font-style:normal;font-variant:normal;font-weight:normal;font-stretch:normal;font-size:25.39999962px;font-family:HACKED;-inkscape-font-specification:HACKED;fill:#00ffff;stroke-width:0.26458332"
           id="path849" />
        <path
           d="m 113.67457,140.5563 h 3.62148 q 0.0744,0 1.16582,2.84014 0.0868,0.11162 2.28203,5.60586 h 0.93018 v -8.446 h 3.16259 v 10.0583 h 0.35967 v 3.91914 h -1.27744 v 0.75655 h 1.27744 v 2.33164 h -4.7501 v -2.96416 h -0.84335 q -1.71153,-4.16719 -2.30684,-5.75469 v -2.98897 h -0.44648 v 9.10332 h -0.71934 v 3.1378 h -2.96416 v -6.75928 h 0.5333 v -0.0372 q -0.0248,-8.75605 -0.0248,-10.80244 z m 5.333,8.446 v 0.65732 h 1.97198 q -0.23565,-0.65732 -0.29766,-0.65732 z m 2.69131,0 v 0.65732 h -0.69453 q 0.63252,1.5751 0.75654,2.05879 h 0.0248 v -0.0868 q -0.0868,-1.6123 -0.0868,-1.97197 h 1.43867 v -0.65732 z m -1.25264,8.94209 h 5.74229 v 0.33486 h -5.74229 z"
           style="font-style:normal;font-variant:normal;font-weight:normal;font-stretch:normal;font-size:25.39999962px;font-family:HACKED;-inkscape-font-specification:HACKED;fill:#00ffff;stroke-width:0.26458332"
           id="path851" />
        <path
           d="m 126.62792,140.50669 h 3.34864 q 0.0496,0.0124 0.0496,0.062 v 8.63204 q 0,0.062 -0.0496,0.062 h -0.39688 v 8.95449 q 0,0.062 -0.062,0.062 h -2.88975 q -0.062,0 -0.062,-0.062 v -9.16533 h -0.89297 q -0.062,0 -0.062,-0.062 v -0.38448 q 0.0124,-0.062 0.062,-0.062 h 0.89297 v -7.97471 q 0.0124,-0.062 0.062,-0.062 z m -0.0372,8.03672 v 0.5085 h 1.71152 v -0.5085 z"
           style="font-style:normal;font-variant:normal;font-weight:normal;font-stretch:normal;font-size:25.39999962px;font-family:HACKED;-inkscape-font-specification:HACKED;fill:#00ffff;stroke-width:0.26458332"
           id="path853" />
        <path
           d="m 137.01991,140.50669 q 3.7207,0 4.67568,2.33164 0.28526,0.55811 0.28526,0.74414 h -1.5627 v 0.47129 h 1.68672 v -0.0248 q 0,-0.12403 -0.12402,-0.44649 h 2.86494 v 0.47129 h -2.71611 v 0.0372 q 0.21084,1.00459 0.29765,2.14561 0,0.062 -3.26181,0.23564 v -0.0248 q 0,-2.95176 -2.02159,-2.95176 h -0.37207 q -1.51308,0 -1.84794,1.28984 -0.26045,1.07901 -0.26045,2.86494 v 2.41846 l -0.0372,0.35967 h -1.14102 v 0.5581 h 1.14102 v 4.30362 h 4.7749 v -4.47725 h 2.75332 v 4.47725 h -1.52549 v 2.75332 h -3.1874 v 0.23564 h -2.48047 v -0.23564 h -2.51767 v -1.37666 h 1.67431 v -0.59532 h -2.51767 v -2.03398 h -1.0666 v -2.51768 h 0.5705 q -0.0372,-1.53789 -0.0372,-2.44326 0,-4.05556 0.38447,-5.10976 0.38447,-1.21543 1.20303,-2.0836 1.46347,-1.37666 4.36562,-1.37666 z"
           style="font-style:normal;font-variant:normal;font-weight:normal;font-stretch:normal;font-size:25.39999962px;font-family:HACKED;-inkscape-font-specification:HACKED;fill:#00ffff;stroke-width:0.26458332"
           id="path855" />
      </g>
      <g
         id="g927">
        <g
           aria-label="don't panic"
           style="font-style:normal;font-weight:normal;font-size:10.58333302px;line-height:1.25;font-family:sans-serif;letter-spacing:0px;word-spacing:0px;opacity:0.68000034;fill:#ff00ff;fill-opacity:1;stroke:none;stroke-width:0.26458332"
           id="text817-4">
          <path
             d="m 39.167782,140.12128 h 5.407422 q 3.373437,0 4.638476,2.29443 1.091406,1.78594 1.091406,5.92832 h 0.533301 v 4.2416 h -5.258594 v -0.48369 h 1.649512 v -3.75791 h -0.483691 v -1.55029 q 0,-2.6169 -1.165821,-3.33623 -0.682128,-0.38448 -2.195214,-0.38448 H 42.65284 v 5.18418 h 0.496094 v 4.32842 h -3.54707 v -4.00595 h -0.434082 z m -1.575098,12.46435 h 1.599903 v 0.55811 h 3.956347 v 1.16582 h 2.430859 v -1.16582 h 5.258594 v 1.16582 h -3.609082 v 3.1626 h -4.080371 v 0.38447 h -3.91914 q -0.06201,0 -0.06201,-0.062 v -4.65088 h -1.575098 z m 5.55625,0 h 2.430859 v 0.55811 h -2.430859 z m 7.689453,0 h 3.485059 v 0.55811 h -3.485059 z"
             style="font-style:normal;font-variant:normal;font-weight:normal;font-stretch:normal;font-size:25.39999962px;font-family:HACKED;-inkscape-font-specification:HACKED;fill:#ff00ff;stroke-width:0.26458332"
             id="path858" />
          <path
             d="m 56.97991,140.10887 q 3.819922,0 5.022949,2.66651 0.682129,1.30224 0.682129,5.02295 v 0.0868 h -1.314649 v 0.59532 h 1.314649 v 6.41201 h -0.868164 v 2.30683 h -1.723926 v 0.65733 h -6.027539 v -0.65733 h -0.731738 v -2.30683 h -1.550293 v -1.81074 h 0.917773 v -0.95498 h -0.917773 v 0.95498 h -2.195215 v -0.95498 h 1.661914 q -0.02481,-2.17041 -0.02481,-3.32383 v -1.51309 q 0,-4.2168 1.42627,-5.64306 1.302246,-1.5379 4.328418,-1.5379 z m -2.17041,6.11436 h 0.03721 l -0.03721,0.0496 v 1.6123 h -1.327051 v 0.59532 H 54.8095 q -0.02481,3.83232 -0.02481,5.77949 v 0.63252 h 2.96416 v -0.97979 h 1.364258 v -0.0372 q 0,-1.81075 -0.02481,-5.04776 0,-0.13642 0.02481,-0.68213 0,-3.49746 -0.409277,-4.30361 -0.42168,-0.76895 -1.550293,-0.76895 h -0.434082 q -1.351856,0 -1.674317,1.19063 -0.148828,0.58291 -0.235644,1.95957 z m 7.875488,1.66191 h 2.133203 v 0.59532 h -2.133203 z"
             style="font-style:normal;font-variant:normal;font-weight:normal;font-stretch:normal;font-size:25.39999962px;font-family:HACKED;-inkscape-font-specification:HACKED;fill:#ff00ff;stroke-width:0.26458332"
             id="path860" />
          <path
             d="m 63.846675,140.13368 h 3.621484 q 0.07441,0 1.16582,2.84014 0.08682,0.11162 2.282032,5.60586 h 0.930175 v -8.446 h 3.162598 v 10.0583 h 0.359668 v 3.91914 h -1.277441 v 0.75654 h 1.277441 v 2.33164 h -4.750098 v -2.96416 h -0.843359 q -1.711523,-4.16718 -2.306836,-5.75468 v -2.98897 h -0.446484 v 9.10332 h -0.719336 v 3.13779 h -2.96416 v -6.75927 h 0.5333 v -0.0372 q -0.0248,-8.75605 -0.0248,-10.80244 z m 5.333007,8.446 v 0.65732 h 1.971973 q -0.235644,-0.65732 -0.297656,-0.65732 z m 2.691309,0 V 149.237 H 71.17646 q 0.632519,1.5751 0.756543,2.05879 h 0.0248 v -0.0868 q -0.08682,-1.6123 -0.08682,-1.97197 h 1.438672 v -0.65732 z m -1.252637,8.94209 h 5.742285 v 0.33486 h -5.742285 z"
             style="font-style:normal;font-variant:normal;font-weight:normal;font-stretch:normal;font-size:25.39999962px;font-family:HACKED;-inkscape-font-specification:HACKED;fill:#ff00ff;stroke-width:0.26458332"
             id="path862" />
          <path
             d="m 76.903387,144.11483 h -0.372071 l -0.768945,-4.45244 q -0.04961,-0.28525 -0.04961,-0.40928 0,-0.45888 0.248047,-0.70693 0.260449,-0.24805 0.74414,-0.24805 0.483692,0 0.744141,0.24805 0.272851,0.23564 0.272851,0.69453 0,0.0992 -0.04961,0.42168 z"
             style="font-style:normal;font-variant:normal;font-weight:normal;font-stretch:normal;font-size:25.39999962px;font-family:HACKED;-inkscape-font-specification:HACKED;fill:#ff00ff;stroke-width:0.26458332"
             id="path864" />
          <path
             d="m 78.255244,140.08407 h 10.417968 v 2.96416 h -3.447851 v 12.29072 h 1.562695 v 0.35967 h -1.562695 v 1.35186 h -0.930176 v 0.47129 h 0.657324 v 0.33486 h -3.162597 q -0.06201,0 -0.06201,-0.062 v -14.74639 h -3.472656 z m 5.742285,15.25488 v 0.35967 h 1.203027 v -0.35967 z"
             style="font-style:normal;font-variant:normal;font-weight:normal;font-stretch:normal;font-size:25.39999962px;font-family:HACKED;-inkscape-font-specification:HACKED;fill:#ff00ff;stroke-width:0.26458332"
             id="path866" />
          <path
             d="m 94.204659,140.02206 h 4.601269 q 4.030762,0 5.159372,2.08359 0.65733,1.31465 0.65733,3.34863 -0.0372,0.37208 -0.0372,0.74415 h 2.55488 v 0.85576 h -2.6417 v -0.0248 q 0.062,-0.78135 0.062,-0.83095 h -1.48829 v 0.85576 h 1.42627 v 3.02617 h -2.93935 v 1.0418 h -0.0248 q -3.398239,0.0248 -3.857125,0.0248 v 1.5751 h -0.620117 v 2.79053 h 0.347265 v 2.34404 h -2.790527 v -1.10381 h -0.384473 v -0.91777 q 0,-1.5875 -0.0248,-5.18418 h 1.686718 v -0.91778 h -1.686718 z m 3.472656,3.02617 v 5.07256 h 1.066601 v -0.73174 h 2.108394 q 0.40928,-0.38447 0.40928,-2.17041 0,-1.69912 -0.76894,-1.95957 -0.28526,-0.21084 -1.302249,-0.21084 z"
             style="font-style:normal;font-variant:normal;font-weight:normal;font-stretch:normal;font-size:25.39999962px;font-family:HACKED;-inkscape-font-specification:HACKED;fill:#ff00ff;stroke-width:0.26458332"
             id="path868" />
          <path
             d="m 107.81357,140.12128 h 2.98897 q 0.062,0.26045 2.90215,9.68623 h 0.5457 v 5.8415 h -1.22783 v 0.44649 h 1.22783 v 1.25263 h -3.29902 v -3.58427 h -4.03077 v 1.52548 h -1.64951 v 2.56729 h -2.98896 V 157.683 h 0.23564 v -2.39366 h 1.22783 V 150.316 h 1.017 z m 1.40147,4.99814 v 0.0248 q -0.38448,2.1208 -1.48828,6.67246 h 2.77812 v -2.00918 h -0.23564 q -0.99219,-4.30362 -0.99219,-4.68809 z m -7.80108,4.66328 h 2.33164 v 0.5333 h -2.33164 z m 9.53741,7.77627 h 3.98115 v 0.29766 h -3.98115 z"
             style="font-style:normal;font-variant:normal;font-weight:normal;font-stretch:normal;font-size:25.39999962px;font-family:HACKED;-inkscape-font-specification:HACKED;fill:#ff00ff;stroke-width:0.26458332"
             id="path870" />
          <path
             d="m 115.31049,140.13368 h 3.62149 q 0.0744,0 1.16582,2.84014 0.0868,0.11162 2.28203,5.60586 h 0.93018 v -8.446 h 3.16259 v 10.0583 h 0.35967 v 3.91914 h -1.27744 v 0.75654 h 1.27744 v 2.33164 h -4.7501 v -2.96416 h -0.84336 q -1.71152,-4.16718 -2.30683,-5.75468 v -2.98897 h -0.44649 v 9.10332 h -0.71933 v 3.13779 H 114.802 v -6.75927 h 0.5333 v -0.0372 q -0.0248,-8.75605 -0.0248,-10.80244 z m 5.33301,8.446 v 0.65732 h 1.97197 q -0.23564,-0.65732 -0.29765,-0.65732 z m 2.69131,0 v 0.65732 h -0.69453 q 0.63252,1.5751 0.75654,2.05879 h 0.0248 v -0.0868 q -0.0868,-1.6123 -0.0868,-1.97197 h 1.43867 v -0.65732 z m -1.25264,8.94209 h 5.74229 v 0.33486 h -5.74229 z"
             style="font-style:normal;font-variant:normal;font-weight:normal;font-stretch:normal;font-size:25.39999962px;font-family:HACKED;-inkscape-font-specification:HACKED;fill:#ff00ff;stroke-width:0.26458332"
             id="path872" />
          <path
             d="m 128.26385,140.08407 h 3.34864 q 0.0496,0.0124 0.0496,0.062 v 8.63203 q 0,0.062 -0.0496,0.062 h -0.39688 v 8.9545 q 0,0.062 -0.062,0.062 h -2.88975 q -0.062,0 -0.062,-0.062 v -9.16534 h -0.89297 q -0.062,0 -0.062,-0.062 v -0.38447 q 0.0124,-0.062 0.062,-0.062 h 0.89297 v -7.97471 q 0.0124,-0.062 0.062,-0.062 z m -0.0372,8.03672 v 0.50849 h 1.71152 v -0.50849 z"
             style="font-style:normal;font-variant:normal;font-weight:normal;font-stretch:normal;font-size:25.39999962px;font-family:HACKED;-inkscape-font-specification:HACKED;fill:#ff00ff;stroke-width:0.26458332"
             id="path874" />
          <path
             d="m 138.65584,140.08407 q 3.7207,0 4.67568,2.33164 0.28526,0.55811 0.28526,0.74414 h -1.5627 v 0.47129 h 1.68672 v -0.0248 q 0,-0.12403 -0.12402,-0.44649 h 2.86494 v 0.47129 h -2.71611 v 0.0372 q 0.21084,1.00459 0.29765,2.1456 0,0.062 -3.26181,0.23565 v -0.0248 q 0,-2.95176 -2.02159,-2.95176 h -0.37207 q -1.51308,0 -1.84795,1.28985 -0.26045,1.079 -0.26045,2.86494 v 2.41846 l -0.0372,0.35966 h -1.14102 v 0.55811 h 1.14102 v 4.30361 h 4.7749 v -4.47724 h 2.75332 v 4.47724 h -1.52549 v 2.75332 h -3.1874 v 0.23565 h -2.48047 v -0.23565 h -2.51767 v -1.37666 h 1.67431 v -0.59531 h -2.51767 v -2.03398 h -1.06661 v -2.51768 h 0.57051 q -0.0372,-1.53789 -0.0372,-2.44326 0,-4.05557 0.38447,-5.10977 0.38447,-1.21543 1.20303,-2.08359 1.46347,-1.37666 4.36562,-1.37666 z"
             style="font-style:normal;font-variant:normal;font-weight:normal;font-stretch:normal;font-size:25.39999962px;font-family:HACKED;-inkscape-font-specification:HACKED;fill:#ff00ff;stroke-width:0.26458332"
             id="path876" />
        </g>
      </g>
    </g>
    <g
       id="g923"
       transform="matrix(1.0816752,0,0,1.0816752,-6.2622643,-7.6961284)">
      <g
         aria-label="CPU"
         style="font-style:normal;font-variant:normal;font-weight:normal;font-stretch:normal;font-size:69.44727325px;line-height:1.25;font-family:HACKED;-inkscape-font-specification:HACKED;letter-spacing:0px;word-spacing:0px;fill:#00ffff;fill-opacity:1;stroke:none;stroke-width:1.73618174"
         id="text881">
        <path
           d="m 55.071325,84.971952 q 10.17294,0 12.817904,6.341133 0.746016,1.559851 0.746016,2.068498 H 64.36261 v 1.288572 h 4.577823 v -0.06782 q 0,-0.339098 -0.305188,-1.220752 h 7.833164 v 1.288572 h -7.426246 v 0.101729 q 0.576466,2.712785 0.813835,5.866396 0,0.16955 -8.918278,0.64429 v -0.0678 q 0,-8.104446 -5.561207,-8.104446 h -0.949475 q -4.170905,0 -5.08647,3.52662 -0.746016,2.984062 -0.746016,7.833166 v 6.61241 l -0.06782,0.98338 h -3.085792 v 1.55985 h 3.085792 v 11.76671 H 61.615916 V 113.151 h 7.494066 v 12.24144 h -4.170905 v 7.52797 h -8.714819 v 0.64429 h -6.781961 v -0.64429 h -6.883689 v -3.76399 h 4.577823 v -1.62767 h -6.84978 v -5.5612 h -2.950153 v -6.84978 h 1.559851 q -0.101729,-4.27264 -0.101729,-6.71415 0,-11.0885 1.085113,-13.970834 0.983385,-3.32316 3.255341,-5.730756 4.035267,-3.730078 11.936251,-3.730078 z m -5.900306,37.978978 h 0.406918 v 1.69549 h 0.983384 v 0.50865 h -1.390302 q -0.135639,0 -0.135639,-0.16955 v -1.86504 q 0,-0.16955 0.135639,-0.16955 z m 10.20685,0 h 0.508647 q 0.406918,0.3391 0.406918,0.64429 0.06782,0 0.576467,-0.64429 h 0.406917 v 0.16955 q -0.576466,0.74601 -0.576466,1.0512 0.101729,0 0.644286,0.88166 v 0.10173 h -0.474737 l -0.576467,-0.64429 q -0.305188,0.57647 -0.474737,0.64429 H 59.31005 q 0.169549,-0.3391 0.746015,-1.15294 l -0.678196,-0.98338 z m 6.714141,2.95015 q 0.813835,0.20346 0.813835,0.47474 v 0.3391 h -0.339098 l -0.305188,-0.3391 h -0.339098 q -0.169549,0.0339 -0.169549,0.16955 v 0.16955 q 1.254663,0.23737 1.254663,0.54255 v 0.27128 q 0,0.64429 -0.746016,0.64429 h -0.339098 q -0.440827,0 -0.712106,-0.47474 v -0.3391 h 0.474737 q 0,0.40692 0.474738,0.40692 h 0.101729 q 0.101729,0 0.237369,-0.23737 0,-0.10173 -1.152934,-0.57646 l -0.06782,-0.16955 v -0.40692 q 0,-0.27128 0.813835,-0.47474 z"
           style="font-style:normal;font-variant:normal;font-weight:normal;font-stretch:normal;font-family:HACKED;-inkscape-font-specification:HACKED;fill:#00ffff;stroke-width:1.73618174"
           id="path823" />
        <path
           d="m 72.772241,85.039771 h 12.512716 q 10.986776,0 14.038658,5.662937 1.797215,3.594439 1.797215,9.121737 -0.10172,0.983385 -0.10172,2.000675 h 6.9515 v 2.33978 h -7.18887 v -0.0678 q 0.16955,-2.10241 0.16955,-2.27196 h -4.035271 v 2.33978 h 3.865721 v 8.24008 h -8.002716 v 2.84842 h -0.06782 q -9.257376,0.0678 -10.478129,0.0678 v 4.27264 h -1.69549 v 7.59579 h 0.949475 v 6.37505 h -7.595796 v -2.98407 H 72.84006 v -2.50932 q 0,-4.34046 -0.06782,-14.14039 h 4.611733 v -2.47541 h -4.611733 z m 9.460834,8.240082 v 13.801287 h 2.882333 v -2.00068 h 5.730757 q 1.152933,-1.0512 1.152933,-5.900301 0,-4.645643 -2.102408,-5.323839 -0.779925,-0.576467 -3.560529,-0.576467 z M 101.3582,104.67355 h 0.23737 q 0.40692,0.33909 0.40692,0.64428 l 0.54256,-0.64428 h 0.33909 v 0.13564 q -0.64428,0.88165 -0.64428,1.69549 h -0.23737 q -0.16955,0 -0.23737,-0.94948 -0.13564,0 -0.57647,-0.81383 z m -0.10173,2.40759 h 1.45813 v 0.40692 h -0.47474 v 1.28857 q 0,0.16955 -0.16955,0.16955 h -0.16955 q -0.13564,0 -0.13564,-0.16955 v -1.28857 h -0.50865 z"
           style="font-style:normal;font-variant:normal;font-weight:normal;font-stretch:normal;font-family:HACKED;-inkscape-font-specification:HACKED;fill:#00ffff;stroke-width:1.73618174"
           id="path825" />
        <path
           d="m 104.32857,84.938042 h 9.3591 v 25.703628 h -4.40827 v 1.3903 h 4.40827 v 4.78129 q 0,6.5785 2.33978,7.69752 1.18684,0.71211 2.95015,0.71211 h 2.88233 v -8.47745 h 2.57715 V 84.938042 h 9.29128 v 29.874538 h -3.35707 v 2.17022 h 3.35707 q -0.0678,1.08512 -0.0678,1.59377 v 9.52865 h -4.88301 v 5.45948 h -21.73618 v -6.71414 h -2.00068 v -20.10852 h -0.7121 z m 9.3591,25.703628 h 5.28993 v 1.3903 h -5.28993 z m 15.5646,17.87047 h 0.30519 q 0.20346,0 0.40692,1.11902 h 0.0678 q 0.33909,-0.98338 0.33909,-1.11902 h 0.47474 q -0.50865,1.86504 -0.71211,1.86504 h -0.23736 q -0.16955,0 -0.64429,-1.86504 z"
           style="font-style:normal;font-variant:normal;font-weight:normal;font-stretch:normal;font-family:HACKED;-inkscape-font-specification:HACKED;fill:#00ffff;stroke-width:1.73618174"
           id="path827" />
      </g>
      <g
         aria-label="CPU"
         style="font-style:normal;font-variant:normal;font-weight:normal;font-stretch:normal;font-size:69.44727325px;line-height:1.25;font-family:HACKED;-inkscape-font-specification:HACKED;letter-spacing:0px;word-spacing:0px;opacity:0.68000034;fill:#ff00ff;fill-opacity:1;stroke:none;stroke-width:1.73618174"
         id="text881-2">
        <path
           d="m 58.524587,84.797681 q 10.17294,0 12.817905,6.341133 0.746015,1.559851 0.746015,2.068498 h -4.272635 v 1.288572 h 4.577824 v -0.06782 q 0,-0.339098 -0.305189,-1.220753 h 7.833165 v 1.288572 h -7.426247 v 0.10173 q 0.576467,2.712784 0.813835,5.866396 0,0.16955 -8.918278,0.64429 v -0.0678 q 0,-8.104446 -5.561207,-8.104446 h -0.949474 q -4.170906,0 -5.086471,3.526619 -0.746015,2.984062 -0.746015,7.833167 v 6.61241 l -0.06782,0.98338 h -3.085792 v 1.55985 h 3.085792 v 11.7667 h 13.089184 v -12.24143 h 7.494066 v 12.24143 h -4.170906 v 7.52798 H 59.67752 v 0.64429 h -6.78196 v -0.64429 h -6.88369 v -3.76399 h 4.577823 v -1.62767 h -6.84978 v -5.56121 h -2.950152 v -6.84978 h 1.559851 q -0.10173,-4.27263 -0.10173,-6.71414 0,-11.088501 1.085114,-13.970834 0.983384,-3.323161 3.255341,-5.730757 4.035266,-3.730078 11.93625,-3.730078 z m -5.900306,37.978979 h 0.406918 v 1.69549 h 0.983384 v 0.50865 h -1.390302 q -0.135639,0 -0.135639,-0.16955 v -1.86504 q 0,-0.16955 0.135639,-0.16955 z m 10.206851,0 h 0.508647 q 0.406917,0.3391 0.406917,0.64429 0.06782,0 0.576467,-0.64429 h 0.406918 v 0.16955 q -0.576467,0.74601 -0.576467,1.0512 0.101729,0 0.644286,0.88166 v 0.10173 h -0.474737 l -0.576467,-0.64429 q -0.305188,0.57647 -0.474737,0.64429 h -0.508647 q 0.169549,-0.3391 0.746016,-1.15294 l -0.678196,-0.98338 z m 6.71414,2.95015 q 0.813836,0.20346 0.813836,0.47474 v 0.3391 H 70.02001 l -0.305189,-0.3391 h -0.339098 q -0.169549,0.0339 -0.169549,0.16955 v 0.16955 q 1.254663,0.23737 1.254663,0.54255 v 0.27128 q 0,0.64429 -0.746016,0.64429 h -0.339098 q -0.440827,0 -0.712106,-0.47474 v -0.3391 h 0.474738 q 0,0.40692 0.474737,0.40692 h 0.101729 q 0.10173,0 0.237369,-0.23737 0,-0.10173 -1.152933,-0.57646 l -0.06782,-0.16955 v -0.40692 q 0,-0.27128 0.813835,-0.47474 z"
           style="font-style:normal;font-variant:normal;font-weight:normal;font-stretch:normal;font-family:HACKED;-inkscape-font-specification:HACKED;fill:#ff00ff;stroke-width:1.73618174"
           id="path830" />
        <path
           d="M 76.225503,84.865501 H 88.73822 q 10.986775,0 14.03866,5.662937 1.79722,3.594439 1.79722,9.121736 -0.10173,0.983386 -0.10173,2.000676 h 6.95151 v 2.33978 H 104.235 v -0.0678 q 0.16955,-2.10241 0.16955,-2.27196 h -4.03527 v 2.33978 h 3.86572 v 8.24008 h -8.002714 v 2.84842 h -0.06782 q -9.257376,0.0678 -10.478128,0.0678 v 4.27264 h -1.69549 v 7.59579 h 0.949474 v 6.37505 h -7.595796 v -2.98407 h -1.051203 v -2.50932 q 0,-4.34046 -0.06782,-14.14039 h 4.611733 v -2.47541 h -4.611733 z m 9.460835,8.240082 v 13.801287 h 2.882333 v -2.00068 h 5.730756 q 1.152933,-1.0512 1.152933,-5.900302 0,-4.645643 -2.102407,-5.323839 -0.779926,-0.576466 -3.560529,-0.576466 z m 19.125132,11.393697 h 0.23736 q 0.40692,0.33909 0.40692,0.64428 l 0.54256,-0.64428 h 0.3391 v 0.13564 q -0.64429,0.88165 -0.64429,1.69549 h -0.23737 q -0.16955,0 -0.23737,-0.94948 -0.13564,0 -0.57646,-0.81383 z m -0.10173,2.40759 h 1.45812 v 0.40692 h -0.47474 v 1.28857 q 0,0.16955 -0.16955,0.16955 h -0.16955 q -0.13564,0 -0.13564,-0.16955 v -1.28857 h -0.50864 z"
           style="font-style:normal;font-variant:normal;font-weight:normal;font-stretch:normal;font-family:HACKED;-inkscape-font-specification:HACKED;fill:#ff00ff;stroke-width:1.73618174"
           id="path832" />
        <path
           d="m 107.78183,84.763771 h 9.3591 V 110.4674 h -4.40827 v 1.3903 h 4.40827 v 4.78128 q 0,6.57851 2.33978,7.69753 1.18684,0.71211 2.95015,0.71211 h 2.88234 v -8.47745 h 2.57714 V 84.763771 h 9.29129 v 29.874539 h -3.35707 v 2.17022 h 3.35707 q -0.0678,1.08512 -0.0678,1.59376 v 9.52866 h -4.88302 v 5.45948 h -21.73618 v -6.71414 h -2.00068 v -20.10852 h -0.7121 z m 9.3591,25.703629 h 5.28993 v 1.3903 h -5.28993 z m 15.5646,17.87047 h 0.30519 q 0.20346,0 0.40692,1.11902 h 0.0678 q 0.3391,-0.98338 0.3391,-1.11902 h 0.47473 q -0.50864,1.86504 -0.7121,1.86504 h -0.23737 q -0.16955,0 -0.64429,-1.86504 z"
           style="font-style:normal;font-variant:normal;font-weight:normal;font-stretch:normal;font-family:HACKED;-inkscape-font-specification:HACKED;fill:#ff00ff;stroke-width:1.73618174"
           id="path834" />
      </g>
    </g>
  </g>
</svg>
